<svg xmlns="http://www.w3.org/2000/svg" xmlns:xlink="http://www.w3.org/1999/xlink" width="1920" zoomAndPan="magnify" viewBox="0 0 1440 809.999993" height="1080" preserveAspectRatio="xMidYMid meet" version="1.0"><defs><g/></defs><path stroke-linecap="butt" transform="matrix(0.702424, -0.26287, 0.26287, 0.702424, 207.641801, 364.693948)" fill="none" stroke-linejoin="miter" d="M 59.290032 51.313642 L 130.272453 51.312162 C 132.647626 55.24851 134.413446 59.535173 135.560156 64.168499 C 136.706867 68.801825 137.283905 72.966152 137.28334 76.652949 C 137.280386 84.937881 135.661245 91.166537 132.420439 95.353551 C 129.18146 99.535687 124.650571 101.627193 118.829599 101.623188 L 69.257787 101.623659 C 66.220205 101.626924 64.701909 102.816036 64.702899 105.190996 L 64.706611 106.1767 C 64.705115 106.671078 64.788849 106.997152 64.949282 107.162852 L 123.752107 107.163479 C 125.225369 109.705694 126.498515 112.901523 127.564843 116.75402 C 128.546661 120.936361 129.040504 124.669154 129.041495 127.950574 C 129.042582 137.710709 127.23419 145.336672 123.626074 150.832112 L 96.933371 150.830584 C 84.470317 150.832272 76.019894 151.301252 71.594913 152.247877 C 67.166879 153.187798 64.415121 153.987604 63.351221 154.646068 C 62.286155 155.38195 61.754011 156.328391 61.753563 157.47381 C 61.753116 158.619229 62.326739 159.523473 63.476258 160.181665 C 67.741225 158.785881 72.208851 157.799604 76.882189 157.229538 C 83.032557 156.650553 89.717732 156.366249 96.936489 156.365044 L 131.49899 156.36432 C 136.504815 163.420604 139.006191 171.908671 139.003119 181.828522 C 139.006267 187.407482 138.308217 192.735154 136.910198 197.823119 C 135.518882 202.908032 133.428314 207.00832 130.638493 210.123981 L 38.502708 210.12264 C 28.332316 210.120347 20.176184 207.663099 14.021501 202.740542 C 7.298463 197.494067 3.938091 189.785634 3.935507 179.613417 L 3.937181 62.630766 C 3.936968 58.693429 8.446608 55.82654 17.469754 54.020345 C 26.486196 52.217203 40.432383 51.313542 59.290032 51.313642 Z M 59.290032 51.313642 " stroke="#ff6b00" stroke-width="66.132675" stroke-opacity="1" stroke-miterlimit="4"/><path stroke-linecap="butt" transform="matrix(0.723455, -0.197771, 0.197771, 0.723455, 313.523779, 325.186264)" fill="none" stroke-linejoin="miter" d="M 80.204962 181.09212 L 65.93703 208.891797 C 59.785284 211.189476 53.100226 212.337067 45.881856 212.33457 C 33.170908 212.337006 22.758917 208.729349 14.640862 201.510227 C 6.521432 194.296128 2.460809 184.579364 2.458993 172.359934 C 2.459539 161.534205 6.109672 151.895148 13.408018 143.447786 C 20.706365 135.000424 31.040254 127.912036 44.407408 122.171201 C 43.425538 119.462239 41.743035 118.111384 39.362647 118.108588 C 36.985908 118.112189 32.639973 120.282589 26.322094 124.629835 C 20.171813 121.431284 14.782445 116.140583 10.147593 108.761383 C 5.514115 101.377158 3.19639 92.849577 3.19579 83.173616 C 3.200215 73.499029 6.766399 65.213879 13.897994 58.324566 C 21.034612 51.436626 30.874343 47.992758 43.422211 47.994336 C 54.249313 47.989858 63.148421 50.001459 70.117257 54.017718 L 83.15617 79.973657 L 93.734239 53.406047 C 100.703693 50.289814 108.494455 48.731764 117.106526 48.731898 C 129.325957 48.730081 139.249318 52.090772 146.875236 58.818996 C 154.506541 65.705275 158.318712 75.343321 158.319518 87.724458 C 158.318857 97.977815 154.649098 107.58991 147.307493 116.570789 C 139.965888 125.551669 130.558832 132.66665 119.076278 137.912984 C 119.980689 140.293003 121.599794 141.480742 123.937244 141.482599 C 126.269671 141.483082 130.06814 139.675969 135.314835 136.067185 L 160.655137 167.804916 C 160.651794 181.011034 157.372505 191.545186 150.813147 199.422447 C 143.599163 208.114248 133.632359 212.457481 120.92141 212.459916 C 101.569488 212.461115 87.996881 202.006858 80.204962 181.09212 Z M 80.204962 181.09212 " stroke="#ff6b00" stroke-width="66.132675" stroke-opacity="1" stroke-miterlimit="4"/><path stroke-linecap="butt" transform="matrix(0.739231, -0.126642, 0.126642, 0.739231, 438.817232, 291.534819)" fill="none" stroke-linejoin="miter" d="M 83.647796 161.041497 C 84.46724 161.039207 85.204528 160.837895 85.861418 160.427294 L 85.861515 149.230069 C 91.437349 145.461214 99.251736 142.382345 109.296903 140.007981 C 119.342949 137.628483 129.1216 136.439681 138.633734 136.436442 C 142.979755 140.864081 146.611148 147.48906 149.523656 156.305367 C 152.431032 165.120795 153.971351 173.09434 154.133467 180.229376 C 152.493468 183.509976 149.728098 187.036371 145.832222 190.807681 C 141.935467 194.584126 137.243728 198.06585 131.7441 201.266496 C 118.134445 209.302564 102.512772 213.321414 84.879081 213.323047 C 59.620458 213.323606 39.731208 205.97952 25.219837 191.302814 C 10.209184 176.456026 2.708876 155.894302 2.704391 129.60987 C 2.70504 103.326317 10.907943 82.680596 27.307966 67.671826 C 34.525741 60.950326 42.933924 55.88592 52.526502 52.482862 C 62.11908 49.079805 72.207442 47.378651 82.786453 47.378522 C 103.452986 47.378611 120.388487 52.377767 133.591198 62.386257 C 146.794788 72.389614 153.398926 84.734104 153.394222 99.412835 C 153.394698 110.483338 149.996075 118.66232 143.187206 123.953157 C 136.378337 129.243993 127.153965 131.885794 115.507196 131.887946 C 109.113558 131.886444 102.673107 130.307512 96.19611 127.152909 C 89.714859 123.992292 85.864007 121.023379 84.635048 118.234144 C 84.630353 111.506539 84.754445 106.217167 85.00219 102.365146 C 84.836444 102.283909 84.553219 102.240672 84.14137 102.238811 L 83.279977 102.239198 C 82.048683 102.239626 81.085539 102.587192 80.389667 103.287031 C 79.694673 103.981736 79.075005 105.439703 78.542688 107.652424 C 78.010372 109.865145 77.743358 115.896244 77.743406 125.735452 C 77.74319 149.27129 79.711613 161.03826 83.647796 161.041497 Z M 83.647796 161.041497 " stroke="#ff6b00" stroke-width="66.132675" stroke-opacity="1" stroke-miterlimit="4"/><path stroke-linecap="butt" transform="matrix(0.747654, -0.059269, 0.059269, 0.747654, 564.417458, 270.822136)" fill="none" stroke-linejoin="miter" d="M 59.292586 51.312409 L 130.269794 51.312033 C 132.648175 55.25189 134.414178 59.535052 135.562199 64.1663 C 136.709808 68.80274 137.283699 72.965276 137.28387 76.653909 C 137.280505 84.934748 135.662898 91.170167 132.421078 95.354149 C 129.184861 99.53335 124.651275 101.62433 118.830706 101.62791 L 69.253879 101.626746 C 66.22356 101.626857 64.703235 102.812504 64.702463 105.194894 L 64.702965 106.177172 C 64.705811 106.668517 64.784134 106.998656 64.948727 107.163219 L 123.752739 107.159173 C 125.227996 109.705595 126.5 112.904661 127.563559 116.755962 C 128.548444 120.94063 129.04186 124.668364 129.042983 127.949547 C 129.042555 137.709202 127.23635 145.335106 123.629148 150.832864 L 96.936298 150.832827 C 84.470289 150.832069 76.021371 151.301274 71.594323 152.246046 C 67.167276 153.190818 64.418716 153.986517 63.353014 154.643939 C 62.285918 155.384845 61.751639 156.32473 61.754546 157.474388 C 61.752261 158.623635 62.328573 159.526167 63.4731 160.181162 C 67.737423 158.784618 72.2093 157.801602 76.883949 157.226511 C 83.03181 156.653264 89.715875 156.368083 96.936556 156.365776 L 131.502796 156.368227 C 136.502765 163.420824 139.006746 171.905653 139.003531 181.832276 C 139.005687 187.407173 138.306159 192.738357 136.915742 197.821459 C 135.520133 202.904149 133.428952 207.006932 130.63742 210.124203 L 38.500311 210.124285 C 28.333207 210.122905 20.17395 207.663132 14.02295 202.739775 C 7.29668 197.493907 3.937242 189.782434 3.938623 179.615331 L 3.938665 62.629688 C 3.93707 58.695383 8.448909 55.824203 17.468579 54.02093 C 26.48825 52.217657 40.43159 51.311492 59.292586 51.312409 Z M 59.292586 51.312409 " stroke="#ff6b00" stroke-width="66.132675" stroke-opacity="1" stroke-miterlimit="4"/><path stroke-linecap="butt" transform="matrix(0.749995, 0.00288235, -0.00288235, 0.749995, 676.141196, 262.442877)" fill="none" stroke-linejoin="miter" d="M 32.473678 210.124768 C 23.374648 210.123279 16.339251 207.702382 11.377925 202.867248 C 6.416578 198.026904 3.935389 190.729095 3.934336 180.968611 L 3.935518 60.660439 C 8.280749 56.971838 13.592757 54.123277 19.866334 52.114778 C 26.13991 50.106278 32.641287 49.09691 39.365295 49.09711 C 49.287256 49.100646 57.692594 51.557944 64.58135 56.479422 C 72.04554 62.054944 75.778321 69.764612 75.774486 79.608449 L 75.77787 146.895384 C 71.185656 147.303661 66.674968 148.597047 62.245788 150.770335 C 57.816608 152.943622 55.601214 155.176111 55.599624 157.473009 C 55.59978 158.868852 56.3804 160.058569 57.941483 161.04216 C 66.056006 154.234883 78.110713 150.829156 94.105625 150.830185 L 123.256889 150.832736 C 128.673687 160.343238 131.377724 170.062084 131.379397 179.984025 C 131.377479 184.905943 130.518215 190.357201 128.796415 196.343029 C 127.074635 202.334064 124.774558 206.926271 121.906622 210.124816 Z M 32.473678 210.124768 " stroke="#ff6b00" stroke-width="66.132675" stroke-opacity="1" stroke-miterlimit="4"/><path stroke-linecap="butt" transform="matrix(0.747177, 0.0650139, -0.0650139, 0.747177, 784.123503, 263.165632)" fill="none" stroke-linejoin="miter" d="M 59.292942 51.311652 L 130.268767 51.315362 C 132.649948 55.248755 134.41346 59.53389 135.559305 64.170767 C 136.709888 68.802003 137.281334 72.966058 137.283119 76.651652 C 137.282679 84.938091 135.660526 91.169873 132.422301 95.351738 C 129.184076 99.533602 124.650576 101.627179 118.831728 101.626375 L 69.254546 101.627111 C 66.222058 101.624348 64.704752 102.812431 64.702629 105.191362 L 64.70494 106.179255 C 64.70587 106.670608 64.786652 106.998171 64.952476 107.161495 L 123.752102 107.163403 C 125.227655 109.701297 126.499303 112.89998 127.561408 116.754713 C 128.54773 120.940177 129.039742 124.671991 129.042632 127.949703 C 129.039793 137.710651 127.235886 145.338444 123.625723 150.833535 L 96.936356 150.829384 C 84.467783 150.83211 76.023452 151.300246 71.593888 152.245072 C 67.164325 153.189897 64.41591 153.988442 63.349094 154.645894 C 62.283861 155.381628 61.754436 156.326913 61.754725 157.471823 C 61.750277 158.622373 62.325377 159.52383 63.475286 160.181835 C 67.740138 158.786048 72.20805 157.801289 76.884213 157.227107 C 83.034884 156.655324 89.717305 156.366637 96.931927 156.366235 L 131.4994 156.364532 C 136.50491 163.420731 139.005235 171.907812 139.006014 181.830513 C 139.005197 187.408874 138.308397 192.739341 136.915613 197.821915 C 135.517641 202.904941 133.42793 207.007782 130.64039 210.120512 L 38.502123 210.123172 C 28.333746 210.124416 20.172828 207.661116 14.025461 202.743198 C 7.300318 197.493909 3.936899 189.782481 3.935655 179.614105 L 3.93567 62.632088 C 3.938157 58.695178 8.445896 55.824869 17.469262 54.020259 C 26.48744 52.2161 40.430246 51.311351 59.292942 51.311652 Z M 59.292942 51.311652 " stroke="#ff6b00" stroke-width="66.132675" stroke-opacity="1" stroke-miterlimit="4"/><path stroke-linecap="butt" transform="matrix(0.738346, 0.131702, -0.131702, 0.738346, 896.515737, 273.12777)" fill="none" stroke-linejoin="miter" d="M 3.935819 187.240709 L 3.936982 63.981449 C 3.938162 59.717062 7.358149 56.170772 14.208113 53.345878 C 21.057162 50.515856 29.11084 49.100446 38.379401 49.097818 C 43.627667 49.098087 48.571474 49.734622 53.20478 51.003213 C 57.839 52.27693 61.381971 53.898725 63.843946 55.866768 C 67.207144 60.128867 70.278439 64.474777 73.068088 68.902669 C 75.857737 73.330561 82.129477 83.665865 91.892649 99.901625 C 92.79266 99.905093 93.613987 99.615744 94.352417 99.039621 C 95.086635 98.46954 95.458527 97.588461 95.457838 96.398212 C 95.45715 95.207962 94.430681 92.893923 92.382644 89.45005 L 79.095588 66.568367 L 79.094864 59.801892 C 83.278971 56.357377 88.364223 53.693837 94.349705 51.806144 C 100.335186 49.918452 106.526674 48.978054 112.927468 48.973781 C 123.340132 48.978696 131.744762 50.86547 138.141357 54.634103 C 145.606471 59.143274 149.335367 66.197035 149.338298 75.793555 L 149.336411 192.28634 C 149.335249 199.33884 145.975206 204.466891 139.249323 207.661153 C 133.50793 210.531671 125.844101 211.967481 116.24758 211.970412 C 110.914532 211.969395 105.727354 211.392143 100.68696 210.243781 C 95.641438 209.096335 91.685698 207.622235 88.813697 205.81727 C 82.990773 198.354031 77.213252 189.988592 71.470877 180.722781 L 58.921216 159.80991 C 56.546149 160.138332 55.354925 161.408925 55.353587 163.625901 C 55.353138 165.017394 56.542879 167.683229 58.921894 171.61828 L 74.301033 196.470499 L 74.29979 202.988668 C 64.789443 209.13971 54.064163 212.216748 42.133291 212.212825 C 30.198205 212.214944 20.84839 210.04178 14.083843 205.693335 C 7.320212 201.350017 3.937232 195.197432 3.935819 187.240709 Z M 3.935819 187.240709 " stroke="#ff6b00" stroke-width="66.132675" stroke-opacity="1" stroke-miterlimit="4"/><path stroke-linecap="butt" transform="matrix(0.722857, 0.199945, -0.199945, 0.722857, 1020.058203, 295.75442)" fill="none" stroke-linejoin="miter" d="M 110.219385 114.174692 L 110.221886 200.652703 C 106.449548 203.933365 101.405369 206.679583 95.089348 208.891357 C 88.774716 211.108151 81.104395 212.213861 72.084794 212.212116 C 63.066582 212.215392 55.398265 210.202493 49.084011 206.18848 C 41.947673 201.839851 38.381609 195.687681 38.380798 187.733356 L 38.380704 108.512124 L 9.71854 108.512672 C 3.815878 100.067089 0.859541 90.844368 0.8632 80.835322 C 0.861971 74.032145 1.946532 68.106685 4.123291 63.062574 C 6.29503 58.019851 8.977414 54.100395 12.17824 51.312858 L 139.375773 51.314307 C 141.752113 55.001741 143.718328 59.472702 145.278047 64.720782 C 146.837766 69.968862 147.614389 75.179566 147.616566 80.345098 C 147.613546 90.024328 145.484438 97.135763 141.220593 101.687198 C 136.956748 106.238633 131.214699 108.513204 123.995835 108.515931 L 87.951716 108.515683 C 87.710768 109.090297 87.583247 109.703788 87.585602 110.357009 C 87.584545 111.837972 88.445511 112.821108 90.169886 113.311437 C 91.97223 113.888278 95.828224 114.17267 101.729217 114.17241 Z M 110.219385 114.174692 " stroke="#ff6b00" stroke-width="66.132675" stroke-opacity="1" stroke-miterlimit="4"/><path stroke-linecap="butt" transform="matrix(0.702424, 0.26287, -0.26287, 0.702424, 1136.899629, 328.734231)" fill="none" stroke-linejoin="miter" d="M 59.291091 51.312628 L 130.268633 51.315934 C 132.648257 55.252436 134.412572 59.53599 135.561577 64.166596 C 136.70753 68.803905 137.280789 72.965958 137.281354 76.652755 C 137.284308 84.937687 135.663477 91.172086 132.423741 95.354126 C 129.184004 99.536165 124.655176 101.625836 118.832378 101.624962 L 69.255689 101.626317 C 66.219932 101.62793 64.705524 102.811952 64.70636 105.191789 L 64.702648 106.177493 C 64.704144 106.671871 64.786829 106.996838 64.949477 107.163975 L 123.752302 107.163347 C 125.225797 109.703889 126.500733 112.902654 127.565527 116.758415 C 128.546588 120.94025 129.0415 124.670051 129.040509 127.95147 C 129.039422 137.711606 127.238436 145.336966 123.627794 150.831202 L 96.935092 150.832731 C 84.467159 150.832867 76.022811 151.30144 71.594116 152.246979 C 67.163596 153.187639 64.415638 153.988008 63.348415 154.643207 C 62.284185 155.380703 61.753206 156.3246 61.755479 157.474896 C 61.751049 158.622141 62.327723 159.524112 63.473919 160.179583 C 67.739547 158.783448 72.209719 157.800143 76.884435 157.229668 C 83.035581 156.651653 89.718094 156.364161 96.931974 156.367191 L 131.499352 156.366089 C 136.502379 163.419361 139.006341 171.908361 139.004535 181.830037 C 139.006265 187.407172 138.308355 192.734514 136.914455 197.821818 C 135.518729 202.904244 133.428122 207.006592 130.640809 210.123983 L 38.503198 210.120447 C 28.332807 210.12274 20.172669 207.665476 14.025837 202.741949 C 7.301942 197.494951 3.937935 189.783817 3.935641 179.613426 L 3.933967 62.630776 C 3.93418 58.693438 8.449513 55.824703 17.466557 54.018467 C 26.490305 52.215283 40.428564 51.314554 59.291091 51.312628 Z M 59.291091 51.312628 " stroke="#ff6b00" stroke-width="66.132675" stroke-opacity="1" stroke-miterlimit="4"/><g fill="#ffbd59" fill-opacity="1"><g transform="translate(262.844406, 512.203013)"><g><path d="M -0.078125 -127.046875 L 49.78125 -145.71875 C 52.488281 -143.570312 54.851562 -141.023438 56.875 -138.078125 C 58.90625 -135.128906 60.410156 -132.359375 61.390625 -129.765625 C 63.566406 -123.941406 64.066406 -119.132812 62.890625 -115.34375 C 61.710938 -111.550781 59.078125 -108.890625 54.984375 -107.359375 L 20.15625 -94.328125 C 18.03125 -93.535156 17.28125 -92.304688 17.90625 -90.640625 L 18.15625 -89.953125 C 18.289062 -89.597656 18.4375 -89.382812 18.59375 -89.3125 L 59.890625 -104.765625 C 61.597656 -103.359375 63.332031 -101.445312 65.09375 -99.03125 C 66.882812 -96.351562 68.210938 -93.859375 69.078125 -91.546875 C 71.640625 -84.703125 72.378906 -78.875 71.296875 -74.0625 L 52.546875 -67.046875 C 43.785156 -63.765625 37.972656 -61.207031 35.109375 -59.375 C 32.242188 -57.550781 30.523438 -56.269531 29.953125 -55.53125 C 29.390625 -54.738281 29.257812 -53.9375 29.5625 -53.125 C 29.863281 -52.320312 30.507812 -51.835938 31.5 -51.671875 C 34.125 -53.785156 37 -55.648438 40.125 -57.265625 C 44.300781 -59.296875 48.925781 -61.257812 54 -63.15625 L 78.28125 -72.234375 C 83.644531 -68.597656 87.628906 -63.289062 90.234375 -56.3125 C 91.703125 -52.40625 92.613281 -48.476562 92.96875 -44.53125 C 93.332031 -40.59375 92.941406 -37.164062 91.796875 -34.25 L 27.078125 -10.03125 C 19.929688 -7.351562 13.550781 -6.9375 7.9375 -8.78125 C 1.84375 -10.695312 -2.539062 -15.222656 -5.21875 -22.359375 L -35.96875 -104.546875 C -37 -107.304688 -34.582031 -110.507812 -28.71875 -114.15625 C -22.863281 -117.800781 -13.316406 -122.097656 -0.078125 -127.046875 Z M -0.078125 -127.046875 "/></g></g></g><g fill="#ffbd59" fill-opacity="1"><g transform="translate(355.055786, 477.111729)"><g><path d="M 52.3125 -36.78125 L 47.484375 -13.84375 C 43.492188 -10.96875 38.882812 -8.816406 33.65625 -7.390625 C 24.457031 -4.867188 16.207031 -5.414062 8.90625 -9.03125 C 1.613281 -12.644531 -3.238281 -18.875 -5.65625 -27.71875 C -7.800781 -35.539062 -7.066406 -43.226562 -3.453125 -50.78125 C 0.148438 -58.34375 6.222656 -65.523438 14.765625 -72.328125 C 13.515625 -74.085938 12.023438 -74.734375 10.296875 -74.265625 C 8.578125 -73.796875 5.863281 -71.363281 2.15625 -66.96875 C -2.914062 -68.0625 -7.859375 -70.820312 -12.671875 -75.25 C -17.484375 -79.675781 -20.84375 -85.390625 -22.75 -92.390625 C -24.664062 -99.398438 -23.726562 -106.097656 -19.9375 -112.484375 C -16.144531 -118.878906 -9.710938 -123.320312 -0.640625 -125.8125 C 7.203125 -127.945312 14.046875 -128.25 19.890625 -126.71875 L 34.453125 -110.515625 L 36.84375 -131.828125 C 41.269531 -135.460938 46.597656 -138.128906 52.828125 -139.828125 C 61.671875 -142.242188 69.507812 -141.773438 76.34375 -138.421875 C 83.226562 -134.953125 87.894531 -128.734375 90.34375 -119.765625 C 92.375 -112.347656 91.625 -104.664062 88.09375 -96.71875 C 84.5625 -88.769531 79.164062 -81.765625 71.90625 -75.703125 C 73.019531 -74.160156 74.421875 -73.617188 76.109375 -74.078125 C 77.796875 -74.546875 80.179688 -76.601562 83.265625 -80.25 L 107.890625 -62.296875 C 110.503906 -52.753906 110.210938 -44.484375 107.015625 -37.484375 C 103.515625 -29.765625 97.164062 -24.644531 87.96875 -22.125 C 73.96875 -18.300781 62.082031 -23.1875 52.3125 -36.78125 Z M 52.3125 -36.78125 "/></g></g></g><g fill="#ffbd59" fill-opacity="1"><g transform="translate(465.412077, 446.773237)"><g><path d="M 55.625 -46.78125 C 56.226562 -46.882812 56.753906 -47.132812 57.203125 -47.53125 L 55.78125 -55.796875 C 59.425781 -59.296875 64.8125 -62.554688 71.9375 -65.578125 C 79.0625 -68.609375 86.140625 -70.726562 93.171875 -71.9375 C 96.953125 -69.21875 100.472656 -64.78125 103.734375 -58.625 C 107.003906 -52.476562 109.15625 -46.773438 110.1875 -41.515625 C 109.382812 -38.890625 107.78125 -35.9375 105.375 -32.65625 C 102.96875 -29.382812 99.9375 -26.210938 96.28125 -23.140625 C 87.238281 -15.472656 76.195312 -10.523438 63.15625 -8.296875 C 44.5 -5.097656 28.867188 -8.003906 16.265625 -17.015625 C 3.296875 -26.085938 -4.847656 -40.335938 -8.171875 -59.765625 C -11.503906 -79.191406 -8.0625 -95.492188 2.15625 -108.671875 C 6.644531 -114.554688 12.21875 -119.363281 18.875 -123.09375 C 25.539062 -126.820312 32.785156 -129.359375 40.609375 -130.703125 C 55.878906 -133.316406 69.023438 -131.757812 80.046875 -126.03125 C 91.078125 -120.3125 97.523438 -112.023438 99.390625 -101.171875 C 100.785156 -92.984375 99.300781 -86.503906 94.9375 -81.734375 C 90.582031 -76.972656 84.101562 -73.851562 75.5 -72.375 C 70.769531 -71.5625 65.804688 -71.910156 60.609375 -73.421875 C 55.421875 -74.941406 52.195312 -76.65625 50.9375 -78.5625 C 50.082031 -83.53125 49.503906 -87.457031 49.203125 -90.34375 C 49.078125 -90.382812 48.863281 -90.378906 48.5625 -90.328125 L 47.9375 -90.21875 C 47.019531 -90.0625 46.347656 -89.675781 45.921875 -89.0625 C 45.492188 -88.457031 45.21875 -87.300781 45.09375 -85.59375 C 44.976562 -83.894531 45.546875 -79.410156 46.796875 -72.140625 C 49.773438 -54.734375 52.71875 -46.28125 55.625 -46.78125 Z M 55.625 -46.78125 "/></g></g></g><g fill="#ffbd59" fill-opacity="1"><g transform="translate(576.863953, 427.829579)"><g><path d="M 34.921875 -122.15625 L 87.984375 -126.359375 C 89.992188 -123.566406 91.566406 -120.472656 92.703125 -117.078125 C 93.835938 -113.679688 94.515625 -110.601562 94.734375 -107.84375 C 95.222656 -101.644531 94.378906 -96.882812 92.203125 -93.5625 C 90.035156 -90.25 86.773438 -88.421875 82.421875 -88.078125 L 45.359375 -85.140625 C 43.085938 -84.953125 42.019531 -83.96875 42.15625 -82.1875 L 42.21875 -81.453125 C 42.25 -81.085938 42.332031 -80.847656 42.46875 -80.734375 L 86.421875 -84.21875 C 87.679688 -82.40625 88.820312 -80.09375 89.84375 -77.28125 C 90.832031 -74.207031 91.425781 -71.441406 91.625 -68.984375 C 92.195312 -61.691406 91.296875 -55.882812 88.921875 -51.5625 L 68.96875 -49.984375 C 59.644531 -49.242188 53.351562 -48.390625 50.09375 -47.421875 C 46.84375 -46.453125 44.835938 -45.691406 44.078125 -45.140625 C 43.328125 -44.523438 42.984375 -43.785156 43.046875 -42.921875 C 43.117188 -42.066406 43.601562 -41.429688 44.5 -41.015625 C 47.613281 -42.304688 50.894531 -43.304688 54.34375 -44.015625 C 58.914062 -44.804688 63.898438 -45.414062 69.296875 -45.84375 L 95.140625 -47.890625 C 99.296875 -42.921875 101.664062 -36.722656 102.25 -29.296875 C 102.582031 -25.128906 102.378906 -21.097656 101.640625 -17.203125 C 100.910156 -13.316406 99.585938 -10.132812 97.671875 -7.65625 L 28.78125 -2.1875 C 21.1875 -1.582031 14.941406 -2.9375 10.046875 -6.25 C 4.710938 -9.78125 1.742188 -15.34375 1.140625 -22.9375 L -5.796875 -110.421875 C -6.023438 -113.359375 -2.820312 -115.769531 3.8125 -117.65625 C 10.445312 -119.539062 20.816406 -121.039062 34.921875 -122.15625 Z M 34.921875 -122.15625 "/></g></g></g><g fill="#ffbd59" fill-opacity="1"><g transform="translate(675.535903, 419.94173)"><g><path d="M 24.359375 0.1875 C 17.523438 0.15625 12.253906 -1.675781 8.546875 -5.3125 C 4.847656 -8.957031 3.007812 -14.441406 3.03125 -21.765625 L 3.375 -111.984375 C 6.644531 -114.742188 10.632812 -116.867188 15.34375 -118.359375 C 20.0625 -119.847656 24.945312 -120.582031 30 -120.5625 C 37.4375 -120.53125 43.726562 -118.660156 48.875 -114.953125 C 54.457031 -110.753906 57.234375 -104.960938 57.203125 -97.578125 L 57.015625 -47.109375 C 53.566406 -46.816406 50.175781 -45.863281 46.84375 -44.25 C 43.519531 -42.632812 41.859375 -40.960938 41.859375 -39.234375 C 41.847656 -38.191406 42.425781 -37.296875 43.59375 -36.546875 C 49.707031 -41.628906 58.757812 -44.148438 70.75 -44.109375 L 92.625 -44.015625 C 96.644531 -36.867188 98.644531 -29.578125 98.625 -22.140625 C 98.601562 -18.441406 97.9375 -14.347656 96.625 -9.859375 C 95.320312 -5.378906 93.59375 -1.945312 91.4375 0.4375 Z M 24.359375 0.1875 "/></g></g></g><g fill="#ffbd59" fill-opacity="1"><g transform="translate(770.470583, 420.072764)"><g><path d="M 54.609375 -114.703125 L 107.640625 -110.09375 C 109.171875 -107 110.210938 -103.6875 110.765625 -100.15625 C 111.328125 -96.625 111.488281 -93.476562 111.25 -90.71875 C 110.707031 -84.519531 109.085938 -79.960938 106.390625 -77.046875 C 103.703125 -74.128906 100.1875 -72.863281 95.84375 -73.25 L 58.78125 -76.46875 C 56.519531 -76.664062 55.3125 -75.878906 55.15625 -74.109375 L 55.09375 -73.375 C 55.0625 -73 55.101562 -72.742188 55.21875 -72.609375 L 99.15625 -68.78125 C 100.09375 -66.789062 100.832031 -64.320312 101.375 -61.375 C 101.84375 -58.1875 101.96875 -55.363281 101.75 -52.90625 C 101.125 -45.625 99.28125 -40.046875 96.21875 -36.171875 L 76.265625 -37.90625 C 66.953125 -38.707031 60.609375 -38.898438 57.234375 -38.484375 C 53.867188 -38.078125 51.769531 -37.660156 50.9375 -37.234375 C 50.09375 -36.753906 49.628906 -36.085938 49.546875 -35.234375 C 49.472656 -34.378906 49.847656 -33.664062 50.671875 -33.09375 C 53.941406 -33.863281 57.34375 -34.304688 60.875 -34.421875 C 65.5 -34.453125 70.507812 -34.234375 75.90625 -33.765625 L 101.734375 -31.515625 C 105.015625 -25.929688 106.332031 -19.429688 105.6875 -12.015625 C 105.320312 -7.847656 104.457031 -3.90625 103.09375 -0.1875 C 101.726562 3.519531 99.894531 6.445312 97.59375 8.59375 L 28.75 2.59375 C 21.15625 1.9375 15.21875 -0.429688 10.9375 -4.515625 C 6.257812 -8.867188 4.25 -14.847656 4.90625 -22.453125 L 12.515625 -109.859375 C 12.773438 -112.796875 16.332031 -114.644531 23.1875 -115.40625 C 30.039062 -116.164062 40.515625 -115.929688 54.609375 -114.703125 Z M 54.609375 -114.703125 "/></g></g></g><g fill="#ffbd59" fill-opacity="1"><g transform="translate(868.858274, 428.180404)"><g><path d="M 5.90625 -16.28125 L 22.140625 -107.296875 C 22.703125 -110.441406 25.695312 -112.609375 31.125 -113.796875 C 36.550781 -114.984375 42.679688 -114.96875 49.515625 -113.75 C 53.390625 -113.050781 56.953125 -111.925781 60.203125 -110.375 C 63.460938 -108.832031 65.875 -107.175781 67.4375 -105.40625 C 69.363281 -101.8125 71.0625 -98.195312 72.53125 -94.5625 C 74 -90.925781 77.269531 -82.46875 82.34375 -69.1875 C 83.007812 -69.070312 83.648438 -69.175781 84.265625 -69.5 C 84.890625 -69.820312 85.28125 -70.421875 85.4375 -71.296875 C 85.601562 -72.179688 85.148438 -74.03125 84.078125 -76.84375 L 77.296875 -95.484375 L 78.1875 -100.484375 C 81.726562 -102.472656 85.832031 -103.769531 90.5 -104.375 C 95.164062 -104.976562 99.863281 -104.859375 104.59375 -104.015625 C 112.28125 -102.640625 118.238281 -100.144531 122.46875 -96.53125 C 127.382812 -92.207031 129.207031 -86.503906 127.9375 -79.421875 L 112.59375 6.59375 C 111.664062 11.800781 108.507812 15.144531 103.125 16.625 C 98.5 17.976562 92.644531 18.023438 85.5625 16.765625 C 81.625 16.054688 77.867188 14.945312 74.296875 13.4375 C 70.722656 11.925781 68 10.316406 66.125 8.609375 C 62.8125 2.328125 59.648438 -4.609375 56.640625 -12.203125 L 50.109375 -29.296875 C 48.316406 -29.367188 47.273438 -28.582031 46.984375 -26.9375 C 46.796875 -25.914062 47.316406 -23.789062 48.546875 -20.5625 L 56.640625 -0.21875 L 55.78125 4.59375 C 47.945312 7.882812 39.625 8.742188 30.8125 7.171875 C 22 5.597656 15.378906 2.765625 10.953125 -1.328125 C 6.535156 -5.429688 4.851562 -10.414062 5.90625 -16.28125 Z M 5.90625 -16.28125 "/></g></g></g><g fill="#ffbd59" fill-opacity="1"><g transform="translate(978.069693, 447.554348)"><g><path d="M 98.828125 -47.234375 L 81.546875 15.28125 C 78.160156 16.894531 73.960938 17.867188 68.953125 18.203125 C 63.953125 18.546875 58.191406 17.8125 51.671875 16 C 45.148438 14.195312 40.007812 11.21875 36.25 7.0625 C 31.945312 2.488281 30.59375 -2.671875 32.1875 -8.421875 L 48.03125 -65.6875 L 27.3125 -71.421875 C 24.738281 -78.710938 24.453125 -85.972656 26.453125 -93.203125 C 27.804688 -98.117188 29.769531 -102.179688 32.34375 -105.390625 C 34.925781 -108.609375 37.660156 -110.898438 40.546875 -112.265625 L 132.484375 -86.84375 C 133.460938 -83.695312 133.988281 -80.070312 134.0625 -75.96875 C 134.144531 -71.863281 133.671875 -67.945312 132.640625 -64.21875 C 130.703125 -57.21875 127.738281 -52.5 123.75 -50.0625 C 119.757812 -47.625 115.15625 -47.125 109.9375 -48.5625 L 83.875 -55.765625 C 83.582031 -55.398438 83.367188 -54.984375 83.234375 -54.515625 C 82.941406 -53.453125 83.363281 -52.566406 84.5 -51.859375 C 85.695312 -51.097656 88.425781 -50.125 92.6875 -48.9375 Z M 98.828125 -47.234375 "/></g></g></g><g fill="#ffbd59" fill-opacity="1"><g transform="translate(1081.697024, 476.243296)"><g><path d="M 83.359375 -95.890625 L 133.21875 -77.21875 C 133.84375 -73.84375 133.953125 -70.375 133.546875 -66.8125 C 133.148438 -63.25 132.460938 -60.171875 131.484375 -57.578125 C 129.304688 -51.753906 126.53125 -47.800781 123.15625 -45.71875 C 119.78125 -43.632812 116.046875 -43.359375 111.953125 -44.890625 L 77.125 -57.921875 C 75 -58.710938 73.625 -58.273438 73 -56.609375 L 72.75 -55.921875 C 72.613281 -55.566406 72.582031 -55.3125 72.65625 -55.15625 L 113.953125 -39.703125 C 114.328125 -37.523438 114.382812 -34.945312 114.125 -31.96875 C 113.707031 -28.769531 113.066406 -26.015625 112.203125 -23.703125 C 109.640625 -16.859375 106.367188 -11.976562 102.390625 -9.0625 L 83.640625 -16.078125 C 74.878906 -19.359375 68.820312 -21.242188 65.46875 -21.734375 C 62.113281 -22.234375 59.972656 -22.394531 59.046875 -22.21875 C 58.109375 -21.988281 57.488281 -21.46875 57.1875 -20.65625 C 56.882812 -19.851562 57.050781 -19.066406 57.6875 -18.296875 C 61.039062 -18.160156 64.4375 -17.679688 67.875 -16.859375 C 72.34375 -15.640625 77.113281 -14.082031 82.1875 -12.1875 L 106.46875 -3.109375 C 108.125 3.148438 107.648438 9.769531 105.046875 16.75 C 103.578125 20.65625 101.679688 24.210938 99.359375 27.421875 C 97.046875 30.640625 94.503906 32.976562 91.734375 34.4375 L 27.015625 10.21875 C 19.867188 7.539062 14.78125 3.664062 11.75 -1.40625 C 8.40625 -6.863281 8.070312 -13.160156 10.75 -20.296875 L 41.5 -102.484375 C 42.53125 -105.242188 46.453125 -106.070312 53.265625 -104.96875 C 60.085938 -103.863281 70.117188 -100.835938 83.359375 -95.890625 Z M 83.359375 -95.890625 "/></g></g></g><path stroke-linecap="butt" transform="matrix(0.707147, -0.249886, 0.249886, 0.707147, 318.691075, 457.802109)" fill="none" stroke-linejoin="miter" d="M 130.234546 59.492269 C 128.825491 40.781866 110.108204 29.986069 61.104774 29.987241 C 8.55473 29.989077 3.599649 61.050391 3.597597 73.202369 C 3.595862 87.541946 9.577701 100.283851 20.905053 108.059481 L 21.097753 108.061288 C 35.050071 117.443952 54.352941 120.01712 71.89649 120.018637 C 75.05597 120.019269 78.266587 120.015876 81.427874 119.823808 L 81.81831 124.784191 C 78.073646 125.173358 74.281386 125.36894 70.487758 125.365177 C 53.181401 125.364617 36.218419 121.187759 20.711154 113.454155 C 10.353311 115.643855 4.960888 122.399887 6.366911 140.728067 C 7.779141 159.445117 26.495507 170.384211 75.449534 170.382153 C 128.04898 170.381203 133.007604 139.122278 133.004746 126.968565 C 133.004278 88.952533 93.58166 80.3965 62.513825 80.399628 C 59.939091 80.401242 57.366092 80.397946 54.932848 80.593181 L 54.347027 76.607783 C 58.335529 76.216397 62.320489 76.022622 66.114117 76.026386 C 83.422209 76.022035 100.531664 80.206461 115.894264 87.739798 C 126.24546 85.553273 131.596077 77.821299 130.234546 59.492269 Z M 43.410817 152.685928 C 43.802862 152.686367 44.186455 152.882681 44.6292 153.271141 C 45.014088 153.85459 51.772588 155.066251 52.162899 155.071601 C 57.363923 156.235574 63.101651 156.865564 68.885267 156.865467 C 75.882867 156.869013 83.032245 155.849022 89.594213 154.240304 C 92.607803 153.465744 95.378023 151.472773 98.780044 151.084052 C 100.339702 151.469473 100.773454 153.462226 99.168354 154.049536 C 93.580952 154.682413 94.404532 156.431767 88.620815 157.448236 C 81.620941 158.858019 74.474256 159.635908 67.524324 159.638158 C 62.712588 159.639205 44.820217 158.420681 42.389412 155.263737 C 41.613874 154.050612 42.389533 152.684093 43.410817 152.685928 Z M 34.272648 41.170644 C 39.816408 40.583109 39.03647 38.788413 44.821922 37.767033 C 51.771508 36.405767 58.919079 35.578475 65.918414 35.577111 C 70.685658 35.576914 88.62252 36.794588 91.003922 39.950646 C 91.782636 41.170418 91.002916 42.579693 89.981633 42.577858 C 89.594498 42.579154 89.205145 42.336613 88.818449 41.945863 C 88.428649 41.360679 81.620746 40.148132 81.233611 40.149428 C 76.078814 38.979695 70.295709 38.399957 64.507182 38.398319 C 57.558985 38.395658 50.364265 39.372007 43.799121 40.974079 C 40.834934 41.749525 38.015312 43.74161 34.662694 44.131217 C 33.058544 43.746646 32.669284 41.753043 34.272648 41.170644 Z M 41.02805 103.293875 C 42.633568 103.877791 42.827024 105.675152 40.83479 106.263758 C 24.693134 103.686311 13.561827 90.947635 11.569641 74.809719 C 11.957726 73.836542 12.543796 73.397339 13.123631 73.39785 C 13.757779 73.400982 14.33976 73.83312 14.533317 74.614108 C 16.332047 88.954664 26.301019 101.105837 41.02805 103.293875 Z M 97.373552 41.168514 C 97.760687 41.167217 97.956491 41.36346 98.346729 41.556599 C 98.588832 41.559292 98.78146 41.748888 98.782828 41.948234 C 99.558366 43.16136 98.784442 44.522968 97.763159 44.521132 C 97.371113 44.520693 96.980875 44.327554 96.352148 43.746323 C 95.378114 42.579057 96.157834 41.169782 97.373552 41.168514 Z M 35.635087 150.694986 C 36.022222 150.69369 36.461863 150.887715 37.046097 151.469796 C 38.014335 152.684729 37.240412 154.046337 36.024693 154.047605 C 35.632647 154.047166 35.441755 153.852659 35.051516 153.65952 C 34.858816 153.657713 34.661278 153.466381 34.65991 153.267035 C 33.834969 152.053024 34.663206 150.694036 35.635087 150.694986 Z M 49.586164 104.462022 C 49.973299 104.460725 50.36402 104.902613 50.754259 105.095752 C 51.579646 106.652406 50.993504 107.279398 50.169831 107.281105 C 49.003515 107.283258 47.010891 105.872054 49.000094 104.901224 C 49.197222 104.656018 49.391729 104.465125 49.586164 104.462022 Z M 49.586164 104.462022 " stroke="#ff6b00" stroke-width="20.908335" stroke-opacity="1" stroke-miterlimit="4"/><path stroke-linecap="butt" transform="matrix(0.725085, -0.191707, 0.191707, 0.725085, 421.995369, 422.646551)" fill="none" stroke-linejoin="miter" d="M 35.634276 29.987334 C 6.370712 29.986441 4.960949 49.724493 4.958773 61.489776 L 4.956907 138.926297 C 4.959766 150.692911 6.369101 170.384377 35.24616 170.380052 C 64.509724 170.380945 65.922612 150.692205 65.918421 138.930627 L 65.921618 61.48907 C 65.918759 49.722456 64.510003 29.988045 35.634276 29.987334 Z M 36.655293 160.608335 C 32.28039 160.609914 27.659582 159.829968 22.896874 158.425289 L 24.109181 155.653504 C 28.487756 157.064368 32.472031 157.643696 36.457766 157.646969 C 42.631618 157.646935 48.371198 155.845859 53.961231 151.085329 C 54.347973 150.885891 54.546261 150.889831 54.934099 150.890014 C 56.146922 150.887437 56.923144 152.250933 55.76221 153.463209 C 49.782825 158.616429 43.410235 160.611092 36.655293 160.608335 Z M 49.780267 41.361222 L 48.562924 44.131675 C 44.187473 42.770123 40.205109 42.142815 36.219375 42.139541 C 30.045523 42.139575 24.305943 43.940652 18.719034 48.750494 C 18.327256 48.9486 18.134003 48.945991 17.746166 48.945809 C 16.528308 48.947054 15.748961 47.534247 16.916262 46.318267 C 22.895646 41.165046 29.266906 39.175419 36.023179 39.173141 C 40.396751 39.176597 45.013854 39.950176 49.780267 41.361222 Z M 17.304046 153.660339 C 17.498995 152.882238 18.134615 152.495399 18.717036 152.493155 C 19.299458 152.490911 20.127965 152.882355 20.318245 153.853891 L 20.320671 154.048475 C 20.126237 155.069141 19.301069 155.459738 18.714943 155.455615 C 18.132522 155.457859 17.306623 154.873162 17.304046 153.660339 Z M 52.35647 45.738035 C 52.548992 44.76535 53.376072 44.326773 53.963528 44.32586 C 54.544619 44.328652 55.368606 44.961329 55.373095 46.126172 C 55.176234 46.952253 54.54565 47.340424 53.958193 47.341336 C 53.375772 47.34358 52.5523 46.953467 52.358896 45.93262 Z M 52.35647 45.738035 " stroke="#ff6b00" stroke-width="20.908335" stroke-opacity="1" stroke-miterlimit="4"/><path stroke-linecap="butt" transform="matrix(0.738684, -0.12979, 0.12979, 0.738684, 481.166094, 406.144728)" fill="none" stroke-linejoin="miter" d="M 141.758165 132.171413 C 141.757866 120.405299 140.393681 100.721198 111.52087 100.719429 C 89.982045 100.72126 83.422848 111.266098 81.624506 121.621543 C 71.460476 121.623065 66.502072 116.225224 65.918251 106.064644 C 65.289477 97.123009 69.712704 85.552434 80.262923 85.550022 C 92.610435 85.551403 98.780599 95.128244 111.324221 95.127065 C 125.421958 95.129257 134.027577 80.01017 134.02593 66.83718 C 134.024123 46.95354 113.901586 29.986107 75.256063 29.985871 L 72.675231 29.987186 C 30.042457 31.0103 4.568488 57.892955 4.571337 100.283007 C 4.571981 139.706037 28.485958 167.418794 60.71711 167.418368 C 67.27962 167.418618 74.087423 166.203396 81.232575 163.820604 C 78.849429 159.446363 77.635544 154.436756 77.245812 149.67243 L 81.620499 148.70129 C 83.616508 164.789435 95.768117 172.376573 111.130621 172.373601 C 140.394751 172.37538 141.754409 152.68865 141.75411 140.922536 Z M 28.293023 60.078411 C 38.210457 45.739779 55.952805 39.17464 73.260742 39.175049 C 84.054139 39.17306 94.600543 41.750579 102.9639 46.128521 C 102.962677 47.730605 101.358468 49.336597 100.337781 49.337054 C 99.946463 49.337043 99.753824 49.139264 99.557725 48.750505 C 99.557725 48.750505 85.801006 42.774489 75.886187 42.772205 C 57.362354 42.769682 41.224215 47.72883 29.849822 63.286852 C 28.098353 65.670763 26.302385 67.856484 25.667523 71.018281 C 25.475341 71.841189 24.890472 72.039848 24.309074 72.038168 C 23.674576 72.037734 22.897502 71.404116 22.700512 70.629168 C 23.480498 66.250162 26.103623 63.480016 28.293023 60.078411 Z M 130.626356 156.671961 C 128.045707 162.601288 118.470878 166.20178 109.914965 166.200296 C 103.547663 166.202616 97.761325 164.40329 95.18553 160.22259 C 94.405016 158.615353 94.164317 156.674627 93.581582 154.874753 C 93.387585 153.661416 93.971564 153.076569 94.797043 153.073541 C 95.37844 153.075221 96.155937 153.46566 96.352927 154.240609 C 96.787533 155.649576 96.790538 157.257692 97.568915 158.425639 C 99.951192 161.631053 104.954904 163.039038 110.305747 163.043206 C 117.888944 163.043 125.861666 160.223923 128.047637 155.45738 C 128.438076 154.679883 129.019897 154.438384 129.406086 154.437493 C 130.426773 154.437036 131.209868 155.457745 130.626356 156.671961 Z M 32.036683 141.702557 C 32.666051 141.702089 33.446597 142.135369 33.642686 142.915447 C 36.02381 152.688501 50.168284 154.681949 58.532439 155.263162 C 60.132844 155.845782 60.329389 157.646547 58.334306 158.226712 C 48.370636 157.449067 33.640414 154.87677 30.870094 143.496491 C 30.673115 142.330224 31.260076 141.698307 32.036683 141.702557 Z M 59.938509 94.10988 C 60.716268 87.54649 63.928833 79.766302 70.487024 78.015426 C 72.480427 78.01666 72.870935 79.766895 71.269307 80.78636 C 65.531821 82.200217 63.539937 89.92519 62.907668 94.546964 C 62.713339 95.321901 62.129371 95.51543 61.541942 95.517979 C 60.912574 95.518447 60.132517 94.931897 59.938509 94.10988 Z M 91.588072 118.607589 C 93.191733 114.235816 99.755831 109.471751 105.150415 109.467741 C 106.123132 109.469432 106.947709 109.471534 107.726107 109.856844 C 109.331642 110.440365 109.332968 112.629879 107.534773 112.631216 L 107.143454 112.631205 C 106.707637 112.433003 106.120208 112.435552 105.53881 112.433872 C 101.551101 112.436535 95.572663 116.034354 94.40908 119.436404 C 94.16165 120.212587 93.582812 120.407018 92.995383 120.409566 C 91.975598 120.404894 91.199769 119.824376 91.588072 118.607589 Z M 114.09438 114.814949 C 112.295295 114.430097 112.103 111.852725 114.287384 111.850498 C 116.476897 111.849172 116.866972 114.233905 114.680908 114.81753 Z M 107.144018 52.103509 C 107.336667 51.909969 107.339238 51.714761 107.335777 51.52378 C 107.53143 50.500534 108.117968 50.111796 108.942545 50.113899 L 109.138655 50.111339 C 111.132059 50.112573 111.519574 52.301196 109.719276 53.12711 C 109.524057 53.515858 109.137868 53.516749 108.69948 53.513756 C 108.117181 53.517206 107.339684 53.126767 107.144018 52.103509 Z M 27.272172 133.726454 C 27.663491 133.726464 28.096327 133.971735 28.485075 134.166955 C 28.683745 134.360505 28.877284 134.553155 28.874714 134.748363 C 29.655239 135.964281 28.876931 137.324066 27.856244 137.324523 C 27.464925 137.324512 27.076176 137.129293 26.689097 136.743994 L 26.300359 136.157456 C 25.669643 134.751048 26.298554 133.729893 27.272172 133.726454 Z M 27.272172 133.726454 " stroke="#ff6b00" stroke-width="20.908335" stroke-opacity="1" stroke-miterlimit="4"/><path stroke-linecap="butt" transform="matrix(0.748583, -0.0460831, 0.0460831, 0.748583, 597.914808, 386.242119)" fill="none" stroke-linejoin="miter" d="M 69.519102 170.5783 L 73.699095 170.574713 C 133.202153 170.57458 138.789189 133.728462 138.789632 95.322592 L 138.59747 61.486438 C 138.596209 49.724555 137.186569 29.986063 106.315804 29.985066 C 76.081494 29.986722 74.475205 49.722188 74.476146 61.48927 L 74.474624 112.627463 C 74.476272 114.041695 73.065218 115.008904 72.095013 115.257052 L 71.463755 115.254718 C 70.294813 115.255812 68.693138 114.233592 68.692613 112.631575 L 68.689257 61.487863 C 68.687996 49.725979 67.085372 29.986044 36.851062 29.9877 C 5.980297 29.986703 4.57219 49.723932 4.567933 61.490694 C 4.568145 91.917988 4.376437 95.710249 4.374126 95.32396 C 4.373683 133.72983 9.964059 170.575234 69.519102 170.5783 Z M 41.030987 149.673791 C 41.223972 149.675235 41.615459 149.673244 41.999983 149.869116 C 48.808355 152.688612 58.531042 153.855928 68.497924 153.853747 C 82.837464 153.854622 97.76361 151.277294 105.928171 145.883351 C 106.315903 145.688056 106.514406 145.684621 106.947481 145.68519 C 108.116423 145.684096 108.942634 147.096906 107.727999 148.264063 C 97.566704 155.069235 83.807509 157.253982 71.074865 157.258101 C 57.361705 157.254041 45.016612 154.438103 40.007871 152.052922 C 39.229001 150.888281 39.622274 149.670561 41.030987 149.673791 Z M 122.653376 45.9305 C 118.27843 44.52361 114.291194 43.938972 110.304506 43.938804 C 104.131328 43.939708 98.3432 45.738502 92.800536 50.500685 C 92.412804 50.69598 92.172713 50.696855 91.781546 50.693647 C 90.617802 50.695061 89.788391 49.334236 91.005906 48.120293 C 96.984853 42.967512 103.353698 40.974868 110.111346 40.973416 C 114.484324 40.971273 119.054267 41.753547 123.867486 43.161327 Z M 15.310804 48.120311 C 21.294949 42.96785 27.658595 40.974886 34.468549 40.971436 C 38.841206 40.974491 43.41147 41.751567 48.177582 43.161665 L 47.010259 45.933719 C 42.635633 44.52163 38.648397 43.936991 34.661708 43.936824 C 28.488531 43.937728 22.700403 45.736522 17.110632 50.501023 C 16.7229 50.696318 16.529916 50.694874 16.138429 50.696865 C 14.9227 50.695079 14.145274 49.337454 15.310804 48.120311 Z M 64.121635 115.256717 C 64.706107 115.25617 65.532979 115.641037 65.725067 116.419936 C 66.307752 117.635118 66.307402 118.997044 66.697103 120.210783 C 67.278914 121.185874 69.518809 122.012564 72.091586 122.009182 C 75.060408 122.014525 78.266229 120.797747 78.850526 117.833256 C 79.043852 116.811955 79.824516 116.421685 80.456093 116.41882 C 81.040244 116.423471 81.818567 117.003641 81.816781 118.21937 C 80.84441 122.4019 76.274868 125.17324 71.703708 125.173619 C 69.078946 125.173802 66.503631 124.201226 64.706114 122.206802 C 63.536967 120.600681 63.536442 118.998663 62.907868 117.003146 C 62.713469 115.837958 63.34418 115.25582 64.121635 115.256717 Z M 35.246781 147.6792 C 35.437775 147.289157 35.830706 147.094182 36.461963 147.096515 C 37.041236 147.095648 37.821002 147.482833 38.013644 148.507022 L 38.017946 149.284797 C 37.818866 150.060489 37.431689 150.501073 36.850972 150.694925 L 36.021212 150.696026 C 34.028027 150.693343 33.640987 148.503967 35.246781 147.6792 Z M 80.064227 111.84965 C 80.258655 111.65811 80.453403 111.461371 80.651586 111.463135 C 81.037874 111.460824 81.426153 111.85 81.815877 112.046192 C 82.640643 113.651987 82.057039 114.231806 81.232477 114.233228 C 80.063535 114.234322 78.07358 112.822926 80.064227 111.84965 Z M 50.750739 47.729442 L 50.752183 47.536458 C 50.997814 46.513159 51.772959 46.127767 52.35743 46.12722 C 52.989008 46.124355 53.76413 46.756509 53.765224 47.925452 C 53.573342 48.753768 52.985983 49.140284 52.354725 49.137951 C 51.775452 49.138818 50.995686 48.751632 50.750739 47.729442 Z M 126.442087 47.53612 C 126.635413 46.514819 127.416076 46.124549 128.047334 46.126882 C 128.631805 46.126335 129.406928 46.758489 129.408022 47.927432 C 129.216459 48.75055 128.62878 49.142264 128.049507 49.143131 C 127.413051 49.140478 126.638483 48.753613 126.440643 47.729104 Z M 126.442087 47.53612 " stroke="#ff6b00" stroke-width="20.908335" stroke-opacity="1" stroke-miterlimit="4"/><path stroke-linecap="butt" transform="matrix(0.749417, 0.0295649, -0.0295649, 0.749417, 714.058026, 380.084209)" fill="none" stroke-linejoin="miter" d="M 93.38733 32.804816 L 28.487974 32.80585 C 8.164851 32.804901 6.562938 51.52322 6.561426 57.694743 L 6.563903 143.109986 C 6.562391 149.281508 8.166041 167.998464 28.489164 167.999413 L 93.38852 167.998379 C 101.747154 167.418432 112.100121 164.012881 112.101425 146.077015 C 112.10198 127.99002 101.749107 124.395335 93.386322 123.813084 L 53.959725 123.809982 L 53.960818 118.024192 L 87.408656 118.02339 C 94.408892 118.023484 103.349444 114.621529 103.547259 100.477739 C 103.353388 86.182605 94.405118 82.782703 87.404882 82.782609 L 63.928239 82.780971 L 63.926519 77.188151 L 93.194157 77.190676 C 101.747733 77.192038 112.103117 75.829646 112.10004 54.875983 C 112.100801 36.794192 101.745116 33.392476 93.38733 32.804816 Z M 21.923138 144.521248 C 22.506839 144.519071 23.283295 144.910642 23.480629 145.684715 C 24.109766 147.098513 24.112943 148.89666 24.88856 150.059698 C 28.679963 155.263243 39.035283 156.673843 49.392211 156.671822 C 57.753023 156.675576 66.115023 155.652444 70.879131 155.652143 C 73.06842 155.654385 73.454304 158.036858 71.267192 158.618317 C 66.894022 158.618833 58.33666 159.446389 49.58491 159.442421 C 38.211505 159.442843 26.300237 158.229149 22.507076 152.056169 C 21.487421 150.256423 21.294087 148.262495 20.711869 146.320395 C 20.512696 145.103342 21.099424 144.517258 21.923138 144.521248 Z M 20.318333 54.295639 C 20.90167 52.302345 21.099273 50.308631 22.117573 48.506672 C 25.86151 42.333456 37.819671 41.168453 49.198281 41.167826 C 57.944621 41.166795 66.502768 41.944622 70.875938 41.944107 C 73.064049 42.577093 72.678466 44.958727 70.489382 44.96169 C 65.725274 44.961991 57.365855 43.936554 49.000044 43.93821 C 38.64832 43.940025 28.294784 45.349255 24.500197 50.502843 C 23.672483 51.718708 23.67566 53.516855 23.093502 54.879404 C 22.896747 55.70551 22.119657 56.090609 21.489118 56.094635 C 20.707243 56.094206 20.126363 55.507273 20.318333 54.295639 Z M 81.619803 43.162156 C 81.817771 43.159559 82.25294 43.356099 82.640851 43.94022 C 83.22673 44.521743 82.834614 45.152274 82.445854 45.73576 C 81.814895 46.125519 81.429162 46.125099 81.038225 46.124885 C 79.432841 46.125669 80.4574 43.161102 81.619803 43.162156 Z M 82.836872 154.872873 C 83.224783 155.456994 83.612693 156.041115 83.033018 156.673832 C 82.644258 157.257319 82.255713 157.449868 82.057745 157.452466 C 80.843299 157.453465 79.822645 154.439273 81.428028 154.438488 C 81.813761 154.438908 82.251537 154.437275 82.836872 154.872873 Z M 82.836872 154.872873 " stroke="#ff6b00" stroke-width="20.908335" stroke-opacity="1" stroke-miterlimit="4"/><path stroke-linecap="butt" transform="matrix(0.738946, 0.128293, -0.128293, 0.738946, 841.845972, 387.176192)" fill="none" stroke-linejoin="miter" d="M 139.568545 105.677578 C 139.566961 67.030105 134.029346 29.9887 74.088272 29.986827 L 69.907146 29.988523 C 9.966072 29.986651 4.376551 67.030428 4.373003 105.678792 C 4.377633 105.096501 4.569434 113.843657 4.766735 139.125236 C 4.763123 150.887762 6.172801 170.577454 35.437337 170.576737 C 64.315686 170.574346 65.72399 150.887028 65.727601 139.124502 L 65.72373 134.748162 C 58.723969 132.368787 53.961159 125.609925 53.379394 116.80889 L 58.338025 116.809649 C 58.91951 126.583402 65.288773 130.56825 72.091777 130.56597 C 78.657623 130.567862 85.022712 126.581774 85.61005 116.811258 L 90.615756 116.80913 C 89.981623 125.609815 85.218489 132.367941 78.268001 134.748206 L 78.26674 139.125437 C 78.26826 150.887071 79.629972 170.574519 108.504081 170.578151 C 137.768616 170.577434 139.182052 150.889224 139.179641 139.122458 C 139.374549 113.846792 139.568044 105.096178 139.568545 105.677578 Z M 66.505191 92.35952 L 66.502127 78.214057 C 66.502757 76.025441 66.892881 72.426497 72.095474 72.036008 C 77.878684 72.036335 78.269523 76.02303 78.268893 78.211646 L 78.266826 92.358 C 78.266195 94.546615 77.877425 98.092462 72.674833 98.482951 C 66.891622 98.482624 66.50367 94.543004 66.505191 92.35952 Z M 48.370625 46.123862 C 55.75683 42.964879 63.923718 41.166364 72.091648 41.170279 C 80.067715 41.165214 87.795229 42.773317 94.408523 46.123738 C 96.353107 46.758795 96.98487 48.50987 94.794511 49.138605 C 87.600388 46.126908 78.655693 44.328372 70.102467 44.327916 C 62.712041 44.326457 55.757592 45.740026 49.587996 48.751221 L 49.196678 48.750439 C 47.785567 48.752263 47.396273 47.149397 48.370625 46.123862 Z M 127.223402 154.049121 C 121.243258 159.247647 114.870711 161.242115 108.114782 161.241507 C 103.743574 161.244487 99.169807 160.41569 94.408343 159.053852 L 95.573516 156.234867 C 99.94744 157.648129 103.933855 158.230008 107.919768 158.230487 C 114.093405 158.226465 119.881596 156.428604 125.42456 151.665444 C 125.86167 151.473257 126.051751 151.471973 126.443069 151.472755 C 127.658967 151.473105 128.437405 152.88154 127.223402 154.049121 Z M 21.486349 158.424674 L 22.701484 155.649877 C 27.075408 157.06314 31.061822 157.645019 35.047735 157.645498 C 41.222264 157.646607 47.010454 155.848746 52.552528 151.080454 C 52.989637 150.888268 53.184851 150.886093 53.571037 150.887766 C 54.738969 150.885871 55.562486 152.249475 54.35137 153.464132 C 48.368339 158.615583 42.000924 160.609159 35.244995 160.608552 C 30.868655 160.612423 26.297775 159.830701 21.486349 158.424674 Z M 60.716393 100.91331 C 61.350891 100.914162 62.126722 101.302803 62.320372 102.083264 C 62.9046 104.656674 65.727643 104.901336 67.911127 104.902857 L 69.517451 104.898858 C 71.706067 104.899488 72.092907 107.279858 69.905684 107.86576 C 65.724558 107.867455 60.525704 107.670522 59.553745 102.711611 C 59.358882 101.497888 59.93978 100.915986 60.716393 100.91331 Z M 78.848773 66.449509 C 82.446044 67.22582 83.809601 71.212795 84.247014 74.615203 C 84.246733 75.587921 83.615624 76.215544 82.839011 76.218221 C 82.252479 76.219613 81.428752 75.585548 81.230862 74.811109 C 81.231212 73.595211 81.040648 69.84863 78.267244 69.220027 C 76.664658 68.636603 77.050584 66.444529 78.848773 66.449509 Z M 97.760783 50.938988 C 97.760351 50.114409 98.344206 49.336403 99.168785 49.335971 C 99.95053 49.332403 100.773546 50.114608 100.773978 50.939187 C 100.776654 51.715801 99.947445 52.298523 99.170831 52.3012 C 98.346252 52.301632 97.763459 51.715602 97.760783 50.938988 Z M 88.815261 154.241748 C 89.01293 153.462069 89.596003 153.075381 90.177403 153.074879 C 90.8119 153.075731 91.587732 153.464372 91.782665 154.434915 L 91.782595 154.678095 C 91.587101 155.652988 90.808815 156.041851 90.179449 156.040108 C 89.592917 156.0415 88.814911 155.457646 88.815261 154.241748 Z M 15.94412 153.66189 C 16.141788 152.882211 16.72397 152.490391 17.306261 152.495021 C 17.939868 152.490741 18.715699 152.879383 18.911524 153.855058 L 18.907676 154.046031 C 18.715069 155.067998 17.936783 155.456861 17.307417 155.455118 C 16.720885 155.456511 15.942879 154.872656 15.94412 153.66189 Z M 15.94412 153.66189 " stroke="#ff6b00" stroke-width="20.908335" stroke-opacity="1" stroke-miterlimit="4"/><path stroke-linecap="butt" transform="matrix(0.720503, 0.208267, -0.208267, 0.720503, 957.840438, 408.035207)" fill="none" stroke-linejoin="miter" d="M 130.235375 59.492494 C 128.826867 40.777802 110.11028 29.988353 61.104519 29.987293 C 8.553122 29.98645 3.599595 61.052533 3.598481 73.202565 C 3.59626 87.543225 9.576461 100.27932 20.901309 108.060346 L 21.095898 108.058314 C 35.052729 117.442345 54.349917 120.018376 71.899963 120.019986 C 75.059978 120.017383 78.269364 120.016773 81.428794 119.824584 L 81.815406 124.781987 C 78.072796 125.169856 74.280229 125.366146 70.490634 125.366401 C 53.184548 125.364753 36.215396 121.183279 20.709782 113.455942 C 10.3522 115.642064 4.959462 122.400146 6.370356 140.729219 C 7.778864 159.443911 26.494473 170.380024 75.445861 170.380537 C 128.046628 170.383374 133.004572 139.126259 133.004241 126.971224 C 133.004896 88.955076 93.578705 80.40017 62.518617 80.400214 C 59.937365 80.398169 57.362562 80.39968 54.93501 80.591756 L 54.347511 76.608664 C 58.33408 76.220757 62.321236 76.022435 66.115834 76.020733 C 83.42192 76.022382 100.532733 80.20628 115.894655 87.736604 C 126.247233 85.551929 131.596898 77.819573 130.235375 59.492494 Z M 43.412524 152.684022 C 43.798145 152.686408 44.1908 152.881937 44.628408 153.270491 C 45.013674 153.853087 51.773888 155.070609 52.163066 155.066546 C 57.364224 156.235941 63.09814 156.866408 68.883775 156.86929 C 75.887758 156.866979 83.031688 155.848335 89.594317 154.244124 C 92.605991 153.465745 95.379965 151.471165 98.781323 151.084349 C 100.334982 151.470172 100.775396 153.462696 99.171072 154.045712 C 93.58057 154.680385 94.406567 156.431336 88.624094 157.452215 C 81.619439 158.858903 74.476918 159.638592 67.525861 159.636447 C 62.712506 159.639863 44.822464 158.424515 42.390276 155.261986 C 41.611731 154.050317 42.388764 152.687183 43.412524 152.684022 Z M 34.274199 41.169214 C 39.814783 40.586921 39.0337 38.785036 44.821177 37.762711 C 51.774468 36.4034 58.92043 35.579344 65.91941 35.57848 C 70.684841 35.578073 88.622808 36.790412 91.005625 39.950947 C 91.780612 41.169065 91.005143 42.57512 89.981383 42.578281 C 89.595762 42.575895 89.206547 42.335999 88.816863 41.944435 C 88.426594 41.363286 81.623459 40.147327 81.232835 40.146387 C 76.081047 38.978985 70.295767 38.395894 64.511579 38.398016 C 57.555519 38.397318 50.365659 39.369601 43.80303 40.973812 C 40.834277 41.750628 38.015936 43.741768 34.658945 44.132023 C 33.055916 43.744206 32.669875 41.75223 34.274199 41.169214 Z M 41.030754 103.293567 C 42.630812 103.877419 42.826682 105.680396 40.836737 106.261025 C 24.69456 103.683837 13.563309 90.945763 11.5711 74.806965 C 11.958015 73.838518 12.541158 73.398879 13.126371 73.397787 C 13.75595 73.400135 14.343233 73.837592 14.534495 74.611804 C 16.33228 88.952629 26.297018 101.106228 41.030754 103.293567 Z M 97.370212 41.168975 C 97.760836 41.169915 97.957456 41.362472 98.343662 41.554444 C 98.587621 41.554406 98.780684 41.753413 98.782716 41.948002 C 99.561261 43.159671 98.784228 44.522804 97.759021 44.520962 C 97.374847 44.523579 96.982192 44.32805 96.352967 43.745493 C 95.381397 42.578776 96.15542 41.167719 97.370212 41.168975 Z M 35.631876 150.693417 C 36.0225 150.694357 36.458076 150.888322 37.044381 151.472443 C 38.013957 152.68853 37.235478 154.04666 36.022132 154.050407 C 35.631508 154.049467 35.439891 153.855463 35.052239 153.658488 C 34.85765 153.66052 34.659583 153.46296 34.664002 153.271928 C 33.83464 152.053262 34.661043 150.692122 35.631876 150.693417 Z M 49.587963 104.46333 C 49.972137 104.460713 50.364831 104.900201 50.751036 105.092173 C 51.580005 106.647089 50.99389 107.282763 50.169722 107.282447 C 49.0043 107.283184 47.007486 105.870666 49.003374 104.897966 C 49.199371 104.656979 49.391928 104.460358 49.587963 104.46333 Z M 49.587963 104.46333 " stroke="#ff6b00" stroke-width="20.908335" stroke-opacity="1" stroke-miterlimit="4"/><path stroke-linecap="butt" transform="matrix(0.700947, 0.266784, -0.266784, 0.700947, 1062.412801, 439.564126)" fill="none" stroke-linejoin="miter" d="M 66.3102 61.489437 C 66.307964 49.726062 64.898066 29.988754 36.02513 29.988364 C 6.756567 29.988085 5.397072 49.726177 5.399308 61.489552 L 5.398827 138.929659 C 5.396195 150.694887 6.759523 170.383046 35.632459 170.383436 C 64.901022 170.383715 66.307087 150.694771 66.309719 138.929544 Z M 26.88244 17.446265 C 27.269471 19.048825 28.487212 21.238008 31.450747 23.0358 C 33.056298 24.252603 34.856149 24.442502 36.216162 24.443145 C 39.231229 24.443594 41.418825 24.641953 59.942293 4.31735 C 61.350534 2.716956 62.712778 -0.0585147 62.71043 -3.022362 C 62.711834 -9.197582 54.935706 -15.806475 49.001292 -15.804794 C 45.405879 -15.807272 42.197609 -13.811563 40.009564 -10.994856 C 25.279586 12.678549 25.864487 14.478866 26.88244 17.446265 Z M 55.369443 150.889856 C 56.538017 150.885342 57.363393 152.248618 56.148331 153.463409 C 50.169711 158.620056 43.799435 160.609942 37.045722 160.611375 C 32.670641 160.610283 28.099721 159.831088 23.284939 158.425814 L 24.502096 155.649836 C 28.873736 157.06216 32.862747 157.644873 36.847067 157.644224 C 43.022288 157.645628 48.807061 155.845152 54.350533 151.08261 C 54.739729 150.889897 54.934183 150.888334 55.369443 150.889856 Z M 17.307722 46.318622 C 23.283327 41.168695 29.65175 39.173942 36.461552 39.173453 C 40.836632 39.174545 45.407552 39.95374 50.1681 41.362938 L 49.005177 44.134992 C 44.62402 42.770872 40.639659 42.141808 36.655338 42.142457 C 30.480118 42.141052 24.695345 43.941529 19.102724 48.750641 C 18.71538 48.948222 18.519074 48.944918 18.135034 48.946192 C 16.920107 48.946056 16.139012 47.538062 17.307722 46.318622 Z M 32.28161 15.45261 C 32.037542 16.275543 35.050732 17.881678 36.654389 18.463901 C 38.01753 18.853451 37.822763 20.655155 36.215513 20.458825 C 34.028206 20.070879 29.070255 17.689124 30.28563 14.674193 C 30.482113 14.092284 31.063911 13.893139 31.454671 13.89488 C 32.035017 13.89691 32.670984 14.674683 32.28161 15.45261 Z M 48.177774 -11.818869 C 49.001941 -11.820474 49.972757 -11.627118 51.191142 -10.797948 C 51.772585 -9.826665 51.385282 -8.999371 50.364809 -9.00107 L 49.779596 -9.001247 C 49.004755 -9.631426 48.373478 -9.825839 47.788265 -9.826016 C 46.182578 -9.827892 45.211159 -8.031522 43.992793 -6.620425 C 43.799903 -6.424408 43.410706 -6.231695 43.021799 -6.228567 C 42.392086 -6.228526 41.611032 -7.006807 42.392399 -8.028666 C 44.189725 -10.217401 45.986874 -11.820922 48.177774 -11.818869 Z M 20.71109 154.049955 C 20.513085 155.067124 19.736545 155.457417 19.106832 155.457459 C 18.521618 155.457282 17.742128 154.873455 17.742264 153.658528 C 17.937183 152.882165 18.524138 152.491582 19.104483 152.493612 C 19.739064 152.491718 20.516991 152.881091 20.709527 153.855501 Z M 52.746816 45.736944 C 52.989539 44.764056 53.765861 44.329263 54.351074 44.32944 C 54.934435 44.32475 55.760496 44.957726 55.760142 46.128153 C 55.567293 46.953883 54.933987 47.339817 54.348773 47.33964 C 53.765412 47.34433 52.987486 46.954957 52.743511 45.933251 Z M 41.031169 17.444519 C 41.611379 18.661476 41.22531 19.243096 40.640096 19.242919 C 39.619623 19.24122 38.212449 18.077088 39.814679 17.24993 C 40.007569 17.053913 40.638845 17.248325 41.031169 17.444519 Z M 41.031169 17.444519 " stroke="#ff6b00" stroke-width="20.908335" stroke-opacity="1" stroke-miterlimit="4"/><g fill="#ffffff" fill-opacity="1"><g transform="translate(360.671903, 576.602834)"><g><path d="M 64.96875 -109.28125 C 59.3125 -122.171875 43.390625 -125.09375 8.734375 -112.859375 C -28.421875 -99.71875 -24.1875 -76.515625 -21.15625 -67.921875 C -17.5625 -57.765625 -10.15625 -50.265625 -0.1875 -47.625 L -0.0625 -47.671875 C 12.140625 -44.515625 26.453125 -47.5 38.84375 -51.875 C 41.09375 -52.671875 43.34375 -53.46875 45.546875 -54.421875 L 47.078125 -51 C 44.5 -49.78125 41.875 -48.6875 39.21875 -47.734375 C 26.953125 -43.40625 13.953125 -42.15625 1 -43.75 C -5.765625 -39.625 -7.875 -33.5 -2.296875 -20.875 C 3.359375 -8 19.3125 -4.921875 53.953125 -17.171875 C 91.140625 -30.3125 86.84375 -53.65625 83.8125 -62.234375 C 74.3125 -89.140625 44.28125 -85.359375 22.328125 -77.59375 C 20.5 -76.953125 18.671875 -76.296875 17.015625 -75.546875 L 15.59375 -78.203125 C 18.3125 -79.484375 21.09375 -80.640625 23.765625 -81.578125 C 36.015625 -85.90625 49.171875 -87.21875 61.90625 -85.703125 C 68.6875 -89.84375 70.53125 -96.6875 64.96875 -109.28125 Z M 26.875 -21.6875 C 27.15625 -21.796875 27.484375 -21.75 27.859375 -21.5625 C 28.296875 -21.25 33.375 -22.09375 33.65625 -22.1875 C 37.625 -22.640625 41.859375 -23.65625 45.9375 -25.09375 C 50.875 -26.828125 55.6875 -29.34375 59.921875 -32.109375 C 61.828125 -33.421875 63.3125 -35.515625 65.609375 -36.65625 C 66.84375 -36.765625 67.609375 -35.453125 66.640625 -34.640625 C 62.84375 -32.8125 63.84375 -31.734375 60.015625 -29.609375 C 55.4375 -26.890625 50.578125 -24.515625 45.640625 -22.765625 C 42.265625 -21.578125 29.296875 -17.96875 26.8125 -19.609375 C 25.953125 -20.265625 26.171875 -21.4375 26.875 -21.6875 Z M -7.46875 -98.25 C -3.671875 -100.0625 -4.703125 -101.140625 -0.859375 -103.296875 C 3.71875 -106.015625 8.578125 -108.375 13.515625 -110.109375 C 16.890625 -111.296875 29.859375 -114.9375 32.34375 -113.28125 C 33.21875 -112.625 33 -111.453125 32.296875 -111.203125 C 32.015625 -111.109375 31.6875 -111.140625 31.296875 -111.3125 C 30.875 -111.65625 25.796875 -110.796875 25.515625 -110.6875 C 21.53125 -110.25 17.3125 -109.21875 13.234375 -107.78125 C 8.296875 -106.03125 3.484375 -103.546875 -0.765625 -100.796875 C -2.6875 -99.484375 -4.140625 -97.359375 -6.453125 -96.234375 C -7.671875 -96.125 -8.453125 -97.4375 -7.46875 -98.25 Z M 12.828125 -56.015625 C 14.09375 -55.984375 14.703125 -54.78125 13.4375 -53.859375 C 1.375 -51.65625 -9.671875 -57.890625 -15.125 -68.78125 C -15.09375 -69.59375 -14.765625 -70.03125 -14.34375 -70.171875 C -13.921875 -70.328125 -13.390625 -70.1875 -13.0625 -69.6875 C -8.203125 -59.984375 1.875 -53.875 12.828125 -56.015625 Z M 37.171875 -114.015625 C 37.453125 -114.125 37.640625 -114.046875 37.96875 -113.984375 C 38.109375 -114.03125 38.296875 -113.96875 38.34375 -113.8125 C 39.203125 -113.171875 39 -111.984375 38.296875 -111.734375 C 38.015625 -111.625 37.671875 -111.6875 37.109375 -111.9375 C 36.09375 -112.546875 36.328125 -113.71875 37.171875 -114.015625 Z M 20.875 -21.15625 C 21.15625 -21.25 21.484375 -21.21875 22.0625 -20.9375 C 23.078125 -20.34375 22.84375 -19.15625 22 -18.859375 C 21.71875 -18.765625 21.53125 -18.859375 21.203125 -18.890625 C 21.0625 -18.84375 20.859375 -18.9375 20.8125 -19.078125 C 19.953125 -19.71875 20.171875 -20.90625 20.875 -21.15625 Z M 19.1875 -57.3125 C 19.46875 -57.40625 19.84375 -57.234375 20.1875 -57.171875 C 21.15625 -56.265625 20.875 -55.671875 20.3125 -55.484375 C 19.46875 -55.171875 17.703125 -55.6875 18.859375 -56.875 C 18.953125 -57.0625 19.046875 -57.265625 19.1875 -57.3125 Z M 19.1875 -57.3125 "/></g></g></g><g fill="#ffffff" fill-opacity="1"><g transform="translate(454.202101, 544.460873)"><g><path d="M -0.609375 -106.890625 C -21.828125 -101.28125 -19.0625 -86.703125 -16.8125 -78.203125 L -1.96875 -22.03125 C 0.28125 -13.515625 5.078125 0.515625 26.015625 -5.015625 C 47.234375 -10.640625 44.46875 -25.203125 42.21875 -33.71875 L 27.375 -89.890625 C 25.125 -98.390625 20.328125 -112.4375 -0.609375 -106.890625 Z M 25.171875 -12.375 C 21.984375 -11.53125 18.515625 -11.234375 14.765625 -11.328125 L 15.109375 -13.578125 C 18.5625 -13.40625 21.546875 -13.71875 24.4375 -14.484375 C 28.90625 -15.671875 32.765625 -18.09375 35.875 -22.609375 C 36.125 -22.84375 36.28125 -22.875 36.5625 -22.953125 C 37.421875 -23.1875 38.28125 -22.328125 37.640625 -21.234375 C 34.296875 -16.328125 30.078125 -13.671875 25.171875 -12.375 Z M 11.8125 -101.375 L 11.46875 -99.109375 C 8.03125 -99.28125 5.046875 -98.96875 2.15625 -98.203125 C -2.328125 -97.015625 -6.171875 -94.609375 -9.296875 -90.078125 C -9.546875 -89.859375 -9.6875 -89.8125 -9.96875 -89.75 C -10.84375 -89.515625 -11.6875 -90.375 -11.0625 -91.46875 C -7.71875 -96.359375 -3.484375 -99.015625 1.4375 -100.3125 C 4.609375 -101.15625 8.078125 -101.46875 11.8125 -101.375 Z M 9.8125 -13.71875 C 9.796875 -14.328125 10.15625 -14.734375 10.578125 -14.859375 C 11.015625 -14.96875 11.671875 -14.828125 12.015625 -14.140625 L 12.0625 -14 C 12.09375 -13.234375 11.59375 -12.796875 11.15625 -12.6875 C 10.734375 -12.5625 10.046875 -12.859375 9.8125 -13.71875 Z M 14.53125 -98.703125 C 14.484375 -99.4375 15 -99.90625 15.421875 -100.015625 C 15.859375 -100.125 16.546875 -99.84375 16.78125 -98.96875 C 16.796875 -98.359375 16.4375 -97.953125 16 -97.84375 C 15.578125 -97.734375 14.90625 -97.859375 14.5625 -98.546875 Z M 14.53125 -98.703125 "/></g></g></g><g fill="#ffffff" fill-opacity="1"><g transform="translate(502.970802, 530.243706)"><g><path d="M 100.0625 -44.875 C 98.546875 -53.5625 94.953125 -67.9375 73.625 -64.1875 C 57.75 -61.40625 54.28125 -52.75 54.296875 -44.859375 C 46.78125 -43.546875 42.40625 -46.859375 40.65625 -54.3125 C 39.046875 -60.859375 40.78125 -69.9375 48.578125 -71.3125 C 57.6875 -72.90625 63.5 -66.640625 72.765625 -68.28125 C 83.21875 -70.109375 87.578125 -82.40625 85.875 -92.109375 C 83.28125 -106.8125 66.21875 -116.71875 37.6875 -111.703125 L 35.78125 -111.375 C 4.421875 -105.109375 -10.90625 -81.9375 -5.390625 -50.609375 C -0.28125 -21.484375 20.953125 -4.15625 44.78125 -8.328125 C 49.640625 -9.1875 54.484375 -10.9375 59.46875 -13.640625 C 57.140625 -16.5625 55.625 -20.078125 54.703125 -23.5625 L 57.8125 -24.859375 C 61.359375 -13.21875 71.3125 -9.203125 82.640625 -11.1875 C 104.25 -14.984375 102.734375 -29.734375 101.203125 -38.40625 Z M 6.890625 -83.390625 C 12.359375 -95.28125 24.609375 -102.4375 37.40625 -104.6875 C 45.34375 -106.078125 53.46875 -105.546875 60.21875 -103.375 C 60.421875 -102.203125 59.46875 -100.828125 58.71875 -100.703125 C 58.4375 -100.640625 58.28125 -100.765625 58.0625 -101.03125 C 58.0625 -101.03125 47.140625 -103.65625 39.796875 -102.359375 C 26.109375 -99.953125 14.84375 -94.1875 8.46875 -81.25 C 7.46875 -79.25 6.421875 -77.390625 6.375 -74.96875 C 6.34375 -74.359375 5.9375 -74.125 5.484375 -74.046875 C 5.046875 -73.96875 4.375 -74.3125 4.140625 -74.875 C 4.15625 -78.203125 5.703125 -80.609375 6.890625 -83.390625 Z M 95.015625 -25.34375 C 93.875 -20.59375 87.28125 -16.703125 80.953125 -15.59375 C 76.25 -14.765625 71.75 -15.328125 69.296875 -18.09375 C 68.5 -19.15625 68.109375 -20.609375 67.421875 -21.84375 C 67.125 -22.71875 67.484375 -23.234375 68.078125 -23.328125 C 68.515625 -23.40625 69.15625 -23.21875 69.40625 -22.671875 C 69.875 -21.6875 70.09375 -20.5 70.828125 -19.71875 C 73.015625 -17.671875 76.875 -17.296875 80.84375 -17.984375 C 86.4375 -18.96875 91.953125 -22.0625 92.953125 -25.890625 C 93.140625 -26.515625 93.578125 -26.75 93.859375 -26.796875 C 94.59375 -26.921875 95.3125 -26.296875 95.015625 -25.34375 Z M 20.28125 -23.578125 C 20.71875 -23.65625 21.359375 -23.46875 21.609375 -22.890625 C 24.640625 -16 35.34375 -16.359375 41.59375 -17.015625 C 42.84375 -16.78125 43.21875 -15.46875 41.828125 -14.78125 C 34.375 -14.078125 23.15625 -14.0625 19.609375 -22.09375 C 19.328125 -22.953125 19.6875 -23.484375 20.28125 -23.578125 Z M 34.6875 -62.34375 C 34.421875 -67.296875 35.765625 -73.453125 40.390625 -75.640625 C 41.84375 -75.890625 42.375 -74.609375 41.34375 -73.671875 C 37.265625 -71.890625 36.796875 -65.90625 36.9375 -62.453125 C 36.90625 -61.828125 36.484375 -61.59375 36.03125 -61.515625 C 35.609375 -61.4375 34.9375 -61.796875 34.6875 -62.34375 Z M 61.265625 -48.359375 C 61.84375 -51.8125 66.109375 -56.203125 70.078125 -56.890625 C 70.796875 -57.03125 71.40625 -57.125 72.03125 -56.9375 C 73.28125 -56.6875 73.5625 -55.078125 72.234375 -54.84375 L 71.9375 -54.796875 C 71.625 -54.90625 71.171875 -54.828125 70.75 -54.75 C 67.796875 -54.234375 63.859375 -50.796875 63.40625 -48.140625 C 63.375 -47.515625 62.953125 -47.296875 62.53125 -47.21875 C 61.78125 -47.09375 61.125 -47.4375 61.265625 -48.359375 Z M 77.375 -54.078125 C 76.015625 -54.140625 75.53125 -56.015625 77.140625 -56.296875 C 78.765625 -56.59375 79.359375 -54.890625 77.8125 -54.15625 Z M 64.078125 -99.515625 C 64.21875 -99.6875 64.1875 -99.84375 64.15625 -99.984375 C 64.171875 -100.734375 64.578125 -101.109375 65.15625 -101.21875 L 65.3125 -101.234375 C 66.78125 -101.5 67.34375 -99.921875 66.140625 -99.109375 C 66.046875 -98.796875 65.75 -98.734375 65.453125 -98.6875 C 65.015625 -98.609375 64.375 -98.8125 64.078125 -99.515625 Z M 15.703125 -28.84375 C 16.015625 -28.890625 16.328125 -28.78125 16.640625 -28.703125 C 16.8125 -28.578125 16.984375 -28.46875 17.015625 -28.3125 C 17.765625 -27.53125 17.34375 -26.40625 16.609375 -26.28125 C 16.3125 -26.21875 16 -26.3125 15.65625 -26.5625 L 15.28125 -26.9375 C 14.65625 -27.890625 14.984375 -28.703125 15.703125 -28.84375 Z M 15.703125 -28.84375 "/></g></g></g><g fill="#ffffff" fill-opacity="1"><g transform="translate(605.656775, 512.004055)"><g><path d="M 52.15625 -1.265625 L 55.265625 -1.453125 C 99.84375 -4.203125 102.3125 -32.03125 100.546875 -60.796875 L 98.828125 -86.140625 C 98.28125 -94.921875 96.34375 -109.625 73.234375 -108.203125 C 50.578125 -106.796875 50.296875 -91.96875 50.84375 -83.1875 L 53.203125 -44.875 C 53.265625 -43.828125 52.265625 -43.015625 51.515625 -42.828125 L 51.078125 -42.796875 C 50.1875 -42.734375 48.953125 -43.421875 48.890625 -44.609375 L 46.53125 -82.921875 C 45.984375 -91.703125 43.875 -106.390625 21.21875 -105 C -1.890625 -103.578125 -2.015625 -88.75 -1.46875 -79.96875 C -0.0625 -57.15625 -0.046875 -54.3125 -0.0625 -54.609375 C 1.703125 -25.84375 7.578125 1.484375 52.15625 -1.265625 Z M 29.859375 -15.59375 C 30.015625 -15.609375 30.3125 -15.625 30.625 -15.5 C 35.828125 -13.734375 43.171875 -13.296875 50.625 -13.75 C 61.34375 -14.40625 72.421875 -17.015625 78.28125 -21.421875 C 78.5625 -21.59375 78.71875 -21.59375 79.015625 -21.609375 C 79.90625 -21.671875 80.5625 -20.671875 79.734375 -19.71875 C 72.4375 -14.1875 62.25 -11.90625 52.71875 -11.328125 C 42.4375 -10.6875 33.0625 -12.21875 29.21875 -13.78125 C 28.578125 -14.625 28.8125 -15.53125 29.859375 -15.59375 Z M 86.203125 -97.03125 C 82.84375 -97.875 79.84375 -98.140625 76.859375 -97.953125 C 72.25 -97.671875 68 -96.0625 64.0625 -92.21875 C 63.765625 -92.046875 63.609375 -92.046875 63.3125 -92.03125 C 62.421875 -91.96875 61.765625 -92.984375 62.609375 -93.921875 C 66.828125 -98.078125 71.515625 -99.859375 76.578125 -100.171875 C 79.859375 -100.375 83.328125 -100 86.96875 -99.171875 Z M 5.96875 -90.4375 C 10.1875 -94.59375 14.859375 -96.375 19.9375 -96.6875 C 23.203125 -96.890625 26.6875 -96.515625 30.328125 -95.6875 L 29.5625 -93.546875 C 26.203125 -94.390625 23.1875 -94.65625 20.21875 -94.46875 C 15.59375 -94.1875 11.359375 -92.578125 7.40625 -88.71875 C 7.109375 -88.5625 6.953125 -88.5625 6.671875 -88.546875 C 5.78125 -88.484375 5.125 -89.5 5.96875 -90.4375 Z M 45.5625 -42.453125 C 46 -42.484375 46.640625 -42.21875 46.8125 -41.640625 C 47.3125 -40.765625 47.390625 -39.734375 47.734375 -38.859375 C 48.234375 -38.125 49.90625 -37.640625 51.828125 -37.765625 C 54.0625 -37.890625 56.40625 -38.9375 56.71875 -41.203125 C 56.828125 -41.9375 57.40625 -42.28125 57.84375 -42.3125 C 58.296875 -42.34375 58.921875 -41.921875 58.96875 -41.015625 C 58.4375 -37.859375 55.125 -35.5625 51.6875 -35.34375 C 49.765625 -35.234375 47.765625 -35.859375 46.328125 -37.265625 C 45.359375 -38.40625 45.296875 -39.59375 44.75 -41.0625 C 44.546875 -41.9375 44.953125 -42.421875 45.5625 -42.453125 Z M 25.453125 -16.828125 C 25.578125 -17.125 25.859375 -17.3125 26.3125 -17.328125 C 26.765625 -17.359375 27.390625 -17.09375 27.578125 -16.359375 L 27.625 -15.75 C 27.5 -15.15625 27.21875 -14.828125 26.78125 -14.671875 L 26.1875 -14.625 C 24.6875 -14.53125 24.28125 -16.15625 25.453125 -16.828125 Z M 57.328125 -45.71875 C 57.484375 -45.890625 57.609375 -46.03125 57.765625 -46.046875 C 58.0625 -46.0625 58.375 -45.78125 58.6875 -45.65625 C 59.359375 -44.5 58.9375 -44.03125 58.34375 -44 C 57.4375 -43.9375 55.890625 -44.890625 57.328125 -45.71875 Z M 32.453125 -92.375 L 32.453125 -92.53125 C 32.5625 -93.265625 33.140625 -93.609375 33.59375 -93.625 C 34.03125 -93.65625 34.65625 -93.265625 34.71875 -92.359375 C 34.59375 -91.75 34.15625 -91.421875 33.71875 -91.390625 C 33.265625 -91.375 32.65625 -91.625 32.453125 -92.375 Z M 89.109375 -96.015625 C 89.203125 -96.75 89.78125 -97.09375 90.234375 -97.125 C 90.671875 -97.140625 91.296875 -96.75 91.359375 -95.84375 C 91.234375 -95.234375 90.796875 -94.90625 90.359375 -94.890625 C 89.90625 -94.859375 89.296875 -95.109375 89.109375 -95.859375 Z M 89.109375 -96.015625 "/></g></g></g><g fill="#ffffff" fill-opacity="1"><g transform="translate(709.091121, 505.986285)"><g><path d="M 74 -98.5625 L 25.34375 -100.484375 C 10.125 -101.09375 8.359375 -87.109375 8.1875 -82.484375 L 5.65625 -18.46875 C 5.46875 -13.828125 6.125 0.234375 21.34375 0.84375 L 70 2.765625 C 76.265625 2.546875 84.140625 0.328125 84.65625 -13.09375 C 85.203125 -26.6875 77.53125 -29.671875 71.3125 -30.359375 L 41.75 -31.53125 L 41.921875 -35.859375 L 67 -34.875 C 72.203125 -34.65625 79.03125 -36.9375 79.59375 -47.515625 C 79.875 -58.265625 73.234375 -61.078125 68.03125 -61.296875 L 50.421875 -61.984375 L 50.59375 -66.15625 L 72.53125 -65.296875 C 78.9375 -65.046875 86.734375 -65.78125 87.359375 -81.453125 C 87.890625 -95.03125 80.234375 -97.875 74 -98.5625 Z M 17.09375 -16.96875 C 17.546875 -16.9375 18.140625 -16.625 18.265625 -16.015625 C 18.6875 -14.953125 18.625 -13.609375 19.1875 -12.6875 C 21.859375 -8.71875 29.578125 -7.359375 37.328125 -7.0625 C 43.609375 -6.8125 49.90625 -7.3125 53.484375 -7.171875 C 55.125 -7.109375 55.359375 -5.296875 53.703125 -4.90625 C 50.421875 -5.03125 43.96875 -4.703125 37.40625 -4.953125 C 28.90625 -5.296875 19.984375 -6.53125 17.328125 -11.265625 C 16.640625 -12.640625 16.546875 -14.140625 16.15625 -15.65625 C 16.03125 -16.546875 16.5 -16.984375 17.09375 -16.96875 Z M 18.578125 -84.625 C 19.09375 -86.078125 19.296875 -87.578125 20.09375 -88.890625 C 23.125 -93.390625 32.109375 -93.921875 40.609375 -93.59375 C 47.171875 -93.328125 53.5625 -92.484375 56.84375 -92.359375 C 58.46875 -91.859375 58.109375 -90.0625 56.46875 -90.140625 C 52.890625 -90.28125 46.65625 -91.265625 40.375 -91.515625 C 32.625 -91.828125 24.8125 -91.09375 21.828125 -87.328125 C 21.1875 -86.453125 21.140625 -85.109375 20.65625 -84.078125 C 20.46875 -83.5 19.875 -83.21875 19.421875 -83.234375 C 18.828125 -83.265625 18.390625 -83.71875 18.578125 -84.625 Z M 64.875 -91.15625 C 65.015625 -91.140625 65.3125 -90.96875 65.609375 -90.53125 C 66.03125 -90.0625 65.703125 -89.609375 65.390625 -89.1875 C 64.9375 -88.890625 64.640625 -88.90625 64.34375 -88.921875 C 63.15625 -88.96875 63.96875 -91.1875 64.875 -91.15625 Z M 62.46875 -7.40625 C 62.75 -6.953125 63.03125 -6.484375 62.5625 -6.0625 C 62.25 -5.625 61.9375 -5.484375 61.796875 -5.5 C 60.90625 -5.53125 60.25 -7.78125 61.4375 -7.734375 C 61.734375 -7.71875 62.03125 -7.703125 62.46875 -7.40625 Z M 62.46875 -7.40625 "/></g></g></g><g fill="#ffffff" fill-opacity="1"><g transform="translate(792.948925, 510.080442)"><g/></g></g><g fill="#ffffff" fill-opacity="1"><g transform="translate(820.292741, 511.319099)"><g><path d="M 111.140625 -28.15625 C 116.09375 -56.703125 116.734375 -84.78125 72.453125 -92.46875 L 69.359375 -93 C 25.0625 -100.6875 16.1875 -74.046875 11.234375 -45.5 C 11.3125 -45.921875 10.34375 -39.4375 7.234375 -20.734375 C 5.734375 -12.046875 4.234375 2.703125 25.859375 6.453125 C 47.1875 10.15625 50.765625 -4.234375 52.265625 -12.921875 L 52.828125 -16.140625 C 47.984375 -18.8125 45.3125 -24.421875 46 -30.96875 L 49.671875 -30.328125 C 48.859375 -23.046875 53.0625 -19.296875 58.0625 -18.421875 C 62.90625 -17.578125 68.140625 -19.703125 69.828125 -26.828125 L 73.515625 -26.1875 C 71.9375 -19.796875 67.5625 -15.40625 62.09375 -14.53125 L 61.53125 -11.3125 C 60.03125 -2.625 58.53125 12.125 79.859375 15.828125 C 101.5 19.578125 105.0625 5.203125 106.5625 -3.484375 C 109.953125 -22.140625 111.21875 -28.578125 111.140625 -28.15625 Z M 58.84375 -47.375 L 60.65625 -57.828125 C 60.9375 -59.453125 61.703125 -62.046875 65.578125 -61.671875 C 69.84375 -60.9375 69.625 -57.953125 69.34375 -56.328125 L 67.53125 -45.875 C 67.25 -44.265625 66.5 -41.671875 62.640625 -42.03125 C 58.359375 -42.78125 58.5625 -45.765625 58.84375 -47.375 Z M 51.390625 -83.84375 C 57.25 -85.25 63.5 -85.515625 69.53125 -84.46875 C 75.40625 -83.453125 80.953125 -81.28125 85.359375 -77.9375 C 86.78125 -77.25 86.984375 -75.84375 85.296875 -75.6875 C 80.375 -78.8125 73.96875 -81.296875 67.640625 -82.40625 C 62.21875 -83.34375 56.890625 -83.1875 51.9375 -81.78125 L 51.640625 -81.828125 C 50.609375 -82.015625 50.515625 -83.234375 51.390625 -83.84375 Z M 95.8125 6.03125 C 90.734375 9.078125 85.78125 9.734375 80.765625 8.875 C 77.546875 8.3125 74.25 7.125 70.890625 5.484375 L 72.125 3.578125 C 75.1875 5.171875 78.046875 6.125 81 6.640625 C 85.5625 7.4375 90.0625 6.84375 94.796875 4.03125 C 95.125 3.9375 95.265625 3.96875 95.5625 4.015625 C 96.453125 4.171875 96.84375 5.3125 95.8125 6.03125 Z M 17.125 -4.296875 L 18.359375 -6.21875 C 21.421875 -4.625 24.28125 -3.671875 27.21875 -3.15625 C 31.796875 -2.359375 36.296875 -2.9375 41.015625 -5.75 C 41.34375 -5.859375 41.484375 -5.828125 41.78125 -5.78125 C 42.65625 -5.625 43.078125 -4.5 42.03125 -3.78125 C 36.96875 -0.703125 32 -0.0625 27 -0.9375 C 23.75 -1.5 20.46875 -2.65625 17.125 -4.296875 Z M 53.484375 -41.796875 C 53.9375 -41.71875 54.46875 -41.328125 54.515625 -40.703125 C 54.609375 -38.703125 56.65625 -38.21875 58.265625 -37.9375 L 59.453125 -37.71875 C 61.0625 -37.4375 61.0625 -35.625 59.375 -35.46875 C 56.28125 -36.015625 52.46875 -36.8125 52.375 -40.625 C 52.375 -41.53125 52.90625 -41.90625 53.484375 -41.796875 Z M 71.296875 -64.9375 C 73.84375 -63.875 74.375 -60.765625 74.21875 -58.203125 C 74.09375 -57.46875 73.578125 -57.09375 72.984375 -57.203125 C 72.546875 -57.28125 72.03125 -57.828125 72 -58.4375 C 72.15625 -59.3125 72.484375 -62.15625 70.5 -62.953125 C 69.40625 -63.59375 69.96875 -65.15625 71.296875 -64.9375 Z M 87.265625 -73.96875 C 87.375 -74.5625 87.90625 -75.078125 88.5 -74.984375 C 89.078125 -74.875 89.578125 -74.1875 89.46875 -73.59375 C 89.375 -73.015625 88.703125 -72.65625 88.125 -72.765625 C 87.53125 -72.859375 87.171875 -73.390625 87.265625 -73.96875 Z M 67.390625 1.234375 C 67.625 0.671875 68.140625 0.46875 68.578125 0.546875 C 69.015625 0.609375 69.546875 1 69.5625 1.78125 L 69.53125 1.921875 C 69.265625 2.625 68.625 2.8125 68.1875 2.75 C 67.75 2.671875 67.234375 2.125 67.390625 1.234375 Z M 13.625 -8.546875 C 13.859375 -9.109375 14.359375 -9.34375 14.8125 -9.265625 C 15.234375 -9.1875 15.765625 -8.765625 15.796875 -8.03125 L 15.765625 -7.875 C 15.484375 -7.15625 14.84375 -6.96875 14.421875 -7.046875 C 13.96875 -7.125 13.46875 -7.671875 13.625 -8.546875 Z M 13.625 -8.546875 "/></g></g></g><g fill="#ffffff" fill-opacity="1"><g transform="translate(922.851636, 529.079769)"><g><path d="M 116.421875 -51.0625 C 119.328125 -64.859375 108.078125 -76.484375 72.78125 -86.6875 C 34.90625 -97.640625 24.84375 -76.296875 22.3125 -67.546875 C 19.328125 -57.203125 20.984375 -46.796875 27.5625 -38.828125 L 27.6875 -38.796875 C 35.78125 -29.140625 49.140625 -23.25 61.765625 -19.59375 C 64.0625 -18.9375 66.359375 -18.265625 68.703125 -17.765625 L 67.953125 -14.078125 C 65.171875 -14.59375 62.390625 -15.234375 59.671875 -16.015625 C 47.1875 -19.625 35.875 -26.171875 26.28125 -35 C 18.359375 -35.578125 13.09375 -31.828125 10.265625 -18.328125 C 7.375 -4.546875 18.578125 7.234375 53.875 17.4375 C 91.75 28.390625 101.859375 6.90625 104.390625 -1.859375 C 112.3125 -29.265625 85.671875 -43.65625 63.296875 -50.125 C 61.4375 -50.65625 59.578125 -51.203125 57.796875 -51.53125 L 58.1875 -54.53125 C 61.140625 -53.984375 64.0625 -53.296875 66.78125 -52.515625 C 79.265625 -48.90625 90.734375 -42.328125 100.21875 -33.671875 C 108.140625 -33.09375 113.609375 -37.59375 116.421875 -51.0625 Z M 34.46875 -2 C 34.75 -1.921875 35.015625 -1.6875 35.203125 -1.3125 C 35.375 -0.8125 39.984375 1.453125 40.265625 1.53125 C 43.78125 3.46875 47.8125 5.109375 51.96875 6.3125 C 57 7.765625 62.359375 8.546875 67.421875 8.75 C 69.734375 8.796875 72.15625 7.953125 74.6875 8.375 C 75.75 9 75.625 10.5 74.359375 10.609375 C 70.203125 9.875 70.40625 11.34375 66.046875 10.84375 C 60.734375 10.390625 55.390625 9.5 50.375 8.046875 C 46.9375 7.046875 34.265625 2.4375 33.21875 -0.359375 C 32.890625 -1.375 33.75 -2.21875 34.46875 -2 Z M 51.09375 -84.25 C 55.25 -83.515625 55.015625 -84.984375 59.40625 -84.5 C 64.703125 -84.046875 70.046875 -83.125 75.078125 -81.671875 C 78.515625 -80.6875 91.171875 -76.09375 92.234375 -73.296875 C 92.5625 -72.28125 91.6875 -71.4375 90.96875 -71.640625 C 90.6875 -71.734375 90.453125 -71.953125 90.234375 -72.3125 C 90.078125 -72.84375 85.453125 -75.109375 85.171875 -75.1875 C 81.671875 -77.125 77.640625 -78.75 73.484375 -79.953125 C 68.453125 -81.40625 63.078125 -82.1875 58.015625 -82.40625 C 55.703125 -82.46875 53.28125 -81.59375 50.765625 -82.015625 C 49.703125 -82.625 49.828125 -84.171875 51.09375 -84.25 Z M 43.03125 -38.078125 C 44.0625 -37.328125 43.828125 -35.984375 42.265625 -35.96875 C 31.171875 -41.203125 25.796875 -52.703125 27.71875 -64.734375 C 28.203125 -65.375 28.734375 -65.53125 29.171875 -65.40625 C 29.609375 -65.28125 29.9375 -64.875 29.9375 -64.265625 C 28.234375 -53.5625 32.875 -42.734375 43.03125 -38.078125 Z M 96.578125 -71.109375 C 96.859375 -71.03125 96.96875 -70.84375 97.203125 -70.609375 C 97.34375 -70.5625 97.46875 -70.40625 97.421875 -70.25 C 97.734375 -69.21875 96.890625 -68.390625 96.15625 -68.59375 C 95.875 -68.671875 95.625 -68.890625 95.3125 -69.4375 C 94.84375 -70.53125 95.71875 -71.359375 96.578125 -71.109375 Z M 29.296875 -5.0625 C 29.578125 -4.984375 29.8125 -4.75 30.125 -4.1875 C 30.59375 -3.125 29.734375 -2.296875 28.875 -2.546875 C 28.59375 -2.625 28.484375 -2.8125 28.234375 -3.03125 C 28.09375 -3.0625 28 -3.265625 28.03125 -3.390625 C 27.703125 -4.4375 28.578125 -5.265625 29.296875 -5.0625 Z M 48.953125 -35.4375 C 49.25 -35.359375 49.4375 -35 49.6875 -34.75 C 49.9375 -33.4375 49.375 -33.140625 48.796875 -33.296875 C 47.9375 -33.546875 46.796875 -34.984375 48.4375 -35.28125 C 48.625 -35.359375 48.8125 -35.484375 48.953125 -35.4375 Z M 48.953125 -35.4375 "/></g></g></g><g fill="#ffffff" fill-opacity="1"><g transform="translate(1017.593008, 557.323151)"><g><path d="M 74.90625 -56.984375 C 78.03125 -65.21875 82.3125 -79.421875 62.078125 -87.125 C 41.5625 -94.921875 35.3125 -81.46875 32.1875 -73.234375 L 11.515625 -18.9375 C 8.390625 -10.71875 4.109375 3.484375 24.34375 11.1875 C 44.859375 18.984375 51.109375 5.53125 54.234375 -2.6875 Z M 59 -98.34375 C 58.84375 -97.109375 59.125 -95.265625 60.71875 -93.21875 C 61.53125 -91.96875 62.734375 -91.328125 63.703125 -90.953125 C 65.796875 -90.15625 67.28125 -89.453125 85.6875 -98.75 C 87.078125 -99.484375 88.796875 -101.0625 89.59375 -103.15625 C 91.25 -107.5 87.546875 -114.171875 83.359375 -115.765625 C 80.84375 -116.71875 78.078125 -116.15625 75.8125 -114.8125 C 59.171875 -102.109375 59.109375 -100.703125 59 -98.34375 Z M 43.359375 2.765625 C 44.1875 3.078125 44.40625 4.265625 43.234375 4.796875 C 37.671875 6.828125 32.671875 6.515625 27.9375 4.703125 C 24.859375 3.546875 21.859375 1.765625 18.875 -0.484375 L 20.46875 -2.125 C 23.15625 0.015625 25.796875 1.515625 28.578125 2.578125 C 32.921875 4.234375 37.4375 4.5 42.609375 2.640625 C 42.9375 2.609375 43.078125 2.65625 43.359375 2.765625 Z M 44.609375 -80.65625 C 50.15625 -82.6875 55.171875 -82.375 59.921875 -80.578125 C 62.984375 -79.40625 65.96875 -77.640625 68.953125 -75.375 L 67.375 -73.75 C 64.671875 -75.890625 62.046875 -77.375 59.265625 -78.4375 C 54.921875 -80.09375 50.390625 -80.359375 45.21875 -78.5 C 44.875 -78.484375 44.75 -78.53125 44.46875 -78.640625 C 43.625 -78.953125 43.4375 -80.15625 44.609375 -80.65625 Z M 63.296875 -98.296875 C 62.953125 -97.8125 64.625 -95.90625 65.578125 -95.03125 C 66.453125 -94.390625 65.828125 -93.1875 64.765625 -93.75 C 63.328125 -94.625 60.484375 -97.625 62.125 -99.40625 C 62.40625 -99.765625 62.875 -99.75 63.15625 -99.640625 C 63.578125 -99.484375 63.796875 -98.765625 63.296875 -98.296875 Z M 81.75 -113.171875 C 82.296875 -112.96875 82.9375 -112.5625 83.5625 -111.6875 C 83.71875 -110.828125 83.234375 -110.375 82.53125 -110.640625 L 82.109375 -110.796875 C 81.71875 -111.4375 81.359375 -111.734375 80.9375 -111.890625 C 79.8125 -112.3125 78.640625 -111.3125 77.421875 -110.671875 C 77.234375 -110.578125 76.921875 -110.546875 76.640625 -110.640625 C 76.21875 -110.8125 75.859375 -111.5625 76.6875 -112.0625 C 78.53125 -113.109375 80.21875 -113.765625 81.75 -113.171875 Z M 18.234375 -4.234375 C 17.828125 -3.59375 17.15625 -3.546875 16.75 -3.6875 C 16.328125 -3.859375 15.921875 -4.484375 16.25 -5.3125 C 16.59375 -5.828125 17.125 -5.953125 17.546875 -5.78125 C 17.953125 -5.640625 18.40625 -5.140625 18.296875 -4.390625 Z M 69.609375 -71.625 C 70 -72.265625 70.671875 -72.34375 71.078125 -72.1875 C 71.5 -72.03125 71.90625 -71.390625 71.578125 -70.53125 C 71.25 -70.03125 70.703125 -69.921875 70.28125 -70.078125 C 69.875 -70.234375 69.421875 -70.734375 69.546875 -71.484375 Z M 68.90625 -94.578125 C 69.015625 -93.5625 68.59375 -93.265625 68.15625 -93.421875 C 67.46875 -93.6875 66.796875 -94.890625 68.125 -95.03125 C 68.3125 -95.125 68.671875 -94.8125 68.90625 -94.578125 Z M 68.90625 -94.578125 "/></g></g></g></svg>