<svg xmlns="http://www.w3.org/2000/svg" xmlns:xlink="http://www.w3.org/1999/xlink" width="1920" zoomAndPan="magnify" viewBox="0 0 1440 809.999993" height="1080" preserveAspectRatio="xMidYMid meet" version="1.0"><defs><g/></defs><path stroke-linecap="butt" transform="matrix(0.716813, -0.220634, 0.220634, 0.716813, 279.279309, 295.210083)" fill="none" stroke-linejoin="miter" d="M 79.786328 79.359114 L 79.786059 213.154385 C 75.811737 216.612191 70.502979 219.501226 63.855189 221.836422 C 57.203953 224.165109 49.133711 225.33225 39.636041 225.329802 C 30.136838 225.332332 22.063084 223.217811 15.414778 218.98624 C 7.903394 214.407272 4.147149 207.932427 4.142596 199.555192 L 4.142865 65.75992 C 8.115655 62.307092 13.425945 59.41308 20.077181 57.084393 C 26.724971 54.749197 34.755771 53.586264 44.167667 53.584109 C 53.578031 53.586931 61.736416 55.656658 68.644735 59.804777 C 76.071093 64.553754 79.787128 71.070718 79.786328 79.359114 Z M 79.786328 79.359114 " stroke="#5e17eb" stroke-width="69.631798" stroke-opacity="1" stroke-miterlimit="4"/><path stroke-linecap="butt" transform="matrix(0.73084, -0.168444, 0.168444, 0.73084, 347.514423, 273.438757)" fill="none" stroke-linejoin="miter" d="M 4.144209 199.040015 L 4.146871 69.256266 C 4.144858 64.766104 7.747442 61.031901 14.959696 58.054829 C 22.166876 55.076587 30.656084 53.585736 40.410926 53.583841 C 45.93716 53.585449 51.138391 54.255087 56.019693 55.593927 C 60.895919 56.931596 64.629211 58.636538 67.219567 60.708751 C 70.760383 65.196771 74.002192 69.776223 76.936014 74.439692 C 79.869836 79.10316 86.476114 89.979317 96.752511 107.078312 C 97.70387 107.078442 98.564967 106.774489 99.344784 106.173869 C 100.120695 105.567004 100.510431 104.641304 100.511258 103.385448 C 100.510915 102.134667 99.427328 99.693521 97.269479 96.069424 L 83.280983 71.978941 L 83.282153 64.854486 C 87.68778 61.230542 93.038354 58.423015 99.344024 56.434246 C 105.648525 54.450552 112.163322 53.456026 118.902471 53.459253 C 129.865152 53.457808 138.717978 55.444762 145.451969 59.4127 C 153.309691 64.163434 157.237009 71.589357 157.238999 81.691638 L 157.237506 204.350932 C 157.236809 211.774809 153.700266 217.170455 146.616554 220.540606 C 140.575065 223.563032 132.498105 225.07407 122.396994 225.070984 C 116.784875 225.070962 111.322108 224.469321 106.016106 223.257082 C 100.70386 222.048748 96.534944 220.494613 93.514436 218.595847 C 87.383297 210.736816 81.294061 201.930708 75.25297 192.173619 L 62.043072 170.154675 C 59.53653 170.50163 58.282602 171.837468 58.285194 174.168432 C 58.283254 175.637827 59.539099 178.444713 62.041408 182.591826 L 78.231049 208.750334 L 78.2302 215.618309 C 68.213236 222.091232 56.926256 225.331758 44.36028 225.332472 C 31.799379 225.334355 21.95295 223.043567 14.829973 218.467522 C 7.706996 213.891476 4.143383 207.415251 4.144209 199.040015 Z M 4.144209 199.040015 " stroke="#5e17eb" stroke-width="69.631798" stroke-opacity="1" stroke-miterlimit="4"/><path stroke-linecap="butt" transform="matrix(0.743358, -0.0995919, 0.0995919, 0.743358, 476.519238, 244.333601)" fill="none" stroke-linejoin="miter" d="M 116.053544 122.104463 L 116.051497 213.155296 C 112.078209 216.611417 106.766774 219.504654 100.122354 221.835698 C 93.472772 224.16605 85.397313 225.333219 75.901831 225.332733 C 66.401186 225.331556 58.32952 223.21494 51.680979 218.987356 C 44.165336 214.407132 40.408261 207.934245 40.411138 199.55837 L 40.409743 116.1424 L 10.230633 116.145382 C 4.012848 107.251382 0.905214 97.539172 0.90842 87.00359 C 0.907093 79.835772 2.052661 73.59933 4.340656 68.288411 C 6.62865 62.977492 9.456597 58.852946 12.823805 55.919935 L 146.749727 55.917374 C 149.250469 59.804704 151.326671 64.507463 152.966625 70.034595 C 154.60658 75.561726 155.427768 81.042221 155.423644 86.485712 C 155.424786 96.675055 153.181538 104.16223 148.692516 108.95756 C 144.199025 113.747036 138.155496 116.14282 130.556768 116.14422 L 92.605812 116.146428 C 92.346612 116.747541 92.21748 117.397608 92.219799 118.086307 C 92.22157 119.641985 93.12851 120.67784 94.940617 121.193872 C 96.840432 121.800477 100.89877 122.102472 107.114938 122.105018 Z M 116.053544 122.104463 " stroke="#5e17eb" stroke-width="69.631798" stroke-opacity="1" stroke-miterlimit="4"/><path stroke-linecap="butt" transform="matrix(0.749243, -0.0336934, 0.0336934, 0.749243, 603.30924, 228.023329)" fill="none" stroke-linejoin="miter" d="M 62.430264 55.918538 L 137.162056 55.916449 C 139.665741 60.064363 141.522305 64.574197 142.731514 69.451152 C 143.940489 74.33331 144.546388 78.713911 144.543773 82.597923 C 144.547756 91.320449 142.839864 97.880555 139.43027 102.283909 C 136.020675 106.687264 131.250153 108.891843 125.118936 108.892443 L 72.92046 108.891202 C 69.724423 108.893457 68.130085 110.146014 68.127038 112.648403 L 68.127303 113.685921 C 68.130155 114.202195 68.213804 114.544841 68.388424 114.719529 L 130.299884 114.719619 C 131.85308 117.396265 133.192815 120.761933 134.313652 124.821593 C 135.351172 129.226817 135.867928 133.15504 135.868891 136.611698 C 135.865817 146.882346 133.966601 154.914508 130.171709 160.69778 L 102.065075 160.700732 C 88.937293 160.699513 80.046618 161.196439 75.382644 162.191042 C 70.718904 163.180441 67.823864 164.025194 66.703196 164.715129 C 65.578551 165.493516 65.01782 166.484951 65.02077 167.694638 C 65.018517 168.904091 65.622283 169.854049 66.832069 170.544512 C 71.324354 169.078178 76.026855 168.038386 80.949512 167.436009 C 87.42596 166.830516 94.462346 166.526523 102.063637 166.529469 L 138.459773 166.529129 C 143.725214 173.955466 146.357741 182.890043 146.357118 193.338063 C 146.359011 199.208658 145.626926 204.822062 144.15566 210.17804 C 142.68983 215.529049 140.488464 219.84597 137.551561 223.128804 L 40.542106 223.13008 C 29.833464 223.128165 21.243069 220.541718 14.766187 215.360099 C 7.684411 209.833249 4.144599 201.712901 4.14628 191.009463 L 4.143463 67.832895 C 4.142168 63.688028 8.892192 60.663992 18.393301 58.765992 C 27.889207 56.867757 42.571741 55.917028 62.430264 55.918538 Z M 62.430264 55.918538 " stroke="#5e17eb" stroke-width="69.631798" stroke-opacity="1" stroke-miterlimit="4"/><path stroke-linecap="butt" transform="matrix(0.749248, 0.0335793, -0.0335793, 0.749248, 722.00481, 222.877626)" fill="none" stroke-linejoin="miter" d="M 4.14347 199.036602 L 4.145582 69.260547 C 4.142291 64.766605 7.749607 61.033645 14.962096 58.056697 C 22.169148 55.07478 30.652579 53.584087 40.412389 53.584617 C 45.938879 53.587185 51.140706 54.255999 56.01787 55.591058 C 60.895267 56.931321 64.631566 58.635538 67.221795 60.709146 C 70.759791 65.201079 73.999038 69.774177 76.934799 74.43908 C 79.87056 79.103983 86.478737 89.980483 96.754593 107.07922 C 97.703424 107.078404 98.565654 106.77387 99.341515 106.17082 C 100.12258 105.567536 100.508426 104.63787 100.509695 103.386559 C 100.510964 102.135247 99.431954 99.696737 97.272665 96.071028 L 83.284212 71.980461 L 83.282831 64.853585 C 87.687317 61.225665 93.041056 58.420652 99.343816 56.433344 C 105.646809 54.45124 112.166044 53.455234 118.901987 53.455734 C 129.866048 53.454428 138.719043 55.440257 145.450568 59.413688 C 153.311823 64.165443 157.236757 71.59091 157.240978 81.689389 L 157.237952 204.348974 C 157.237015 211.773127 153.699116 217.171315 146.618818 220.538568 C 140.576257 223.56214 132.500301 225.071067 122.396386 225.070318 C 116.786646 225.071481 111.321793 224.466591 106.012464 223.260385 C 100.702903 222.048975 96.535373 220.494424 93.515078 218.596497 C 87.386256 210.738019 81.298243 201.928845 75.251273 192.174176 L 62.038636 170.155118 C 59.536027 170.501888 58.282208 171.840617 58.282382 174.171071 C 58.285471 175.635944 59.537364 178.442082 62.043264 182.589253 L 78.23078 208.750106 L 78.230908 215.61636 C 68.213926 222.092171 56.925697 225.329986 44.361018 225.330037 C 31.796338 225.330089 21.95497 223.04446 14.831478 218.468183 C 7.707986 213.891905 4.143582 207.414789 4.14347 199.036602 Z M 4.14347 199.036602 " stroke="#5e17eb" stroke-width="69.631798" stroke-opacity="1" stroke-miterlimit="4"/><path stroke-linecap="butt" transform="matrix(0.742857, 0.103268, -0.103268, 0.742857, 854.090771, 229.409423)" fill="none" stroke-linejoin="miter" d="M 116.051742 122.101388 L 116.052657 213.156027 C 112.079077 216.611059 106.770729 219.504949 100.121735 221.833254 C 93.473458 224.166717 85.395473 225.331743 75.898813 225.332055 C 66.402154 225.332366 58.325483 223.215956 51.679836 218.986549 C 44.165603 214.409889 40.409904 207.933031 40.41274 199.555977 L 40.412481 116.146987 L 10.234281 116.145981 C 4.0128 107.251234 0.905709 97.534419 0.908566 87.001411 C 0.906105 79.834529 2.052885 73.596379 4.338588 68.288394 C 6.628732 62.974533 9.452818 58.853726 12.820445 55.919378 L 146.746687 55.91647 C 149.253347 59.801034 151.322325 64.508913 152.963223 70.033514 C 154.604838 75.563273 155.424619 81.044268 155.424001 86.486817 C 155.425401 96.672178 153.180091 104.162049 148.688072 108.956431 C 144.201212 113.750095 138.155951 116.146967 130.557449 116.146328 L 92.606922 116.142555 C 92.349773 116.75147 92.218446 117.395478 92.220251 118.089338 C 92.220299 119.640565 93.126802 120.676658 94.939759 121.197618 C 96.837847 121.801395 100.897441 122.104691 107.112665 122.103064 Z M 116.051742 122.101388 " stroke="#5e17eb" stroke-width="69.631798" stroke-opacity="1" stroke-miterlimit="4"/><path stroke-linecap="butt" transform="matrix(0.729318, 0.174917, -0.174917, 0.729318, 981.785237, 247.396882)" fill="none" stroke-linejoin="miter" d="M 84.577612 137.902436 C 85.268305 138.593748 86.347602 138.940124 87.815501 138.941566 C 89.2834 138.943008 90.533168 138.637912 91.572297 138.035192 C 89.32446 124.911061 87.813597 117.137605 87.040922 114.719888 C 86.087153 112.217059 84.661583 110.962865 82.765428 110.96237 C 81.898788 110.966693 80.862953 111.225836 79.657923 111.7398 Z M 58.933413 176.762165 C 58.071651 177.970426 57.638968 179.091846 57.635364 180.126425 C 57.636599 182.632754 59.991479 184.72456 64.696155 186.408123 C 69.400832 188.091686 75.12337 189.15085 81.857491 189.581765 C 82.981314 202.016746 84.186792 209.097532 85.48527 210.826758 C 83.846507 214.021 79.309622 217.235458 71.885959 220.472768 C 64.457232 223.711292 56.082702 225.328823 46.758521 225.331639 C 34.407582 225.331962 23.830444 222.678752 15.025891 217.366945 C 6.216274 212.056351 1.8112 205.212699 1.810668 196.835988 C 1.813243 194.591192 2.028082 192.606137 2.46025 190.879609 L 30.047257 67.576651 C 36.95533 63.172195 45.204746 59.715415 54.78659 57.213806 C 64.372284 54.705917 74.345119 53.454899 84.708944 53.454472 C 99.556081 53.455344 112.250616 55.959578 122.787483 60.96839 C 134.78566 66.665796 142.087826 74.914185 144.676358 85.707069 L 174.205128 207.844679 C 165.229005 219.504446 150.590032 225.329219 130.296917 225.332976 C 120.457372 225.330851 112.121652 223.559415 105.301104 220.021305 C 98.479341 216.478129 94.510551 211.431233 93.386025 204.866635 L 90.533493 189.064902 C 95.718762 188.978187 100.72448 187.986516 105.560779 186.087461 C 110.397078 184.188405 112.812552 182.200448 112.813479 180.12744 C 112.814097 178.745435 112.251298 177.627103 111.127717 176.7611 C 107.846158 179.090676 103.830938 180.862435 99.085908 182.070097 C 94.335812 183.278974 89.933843 183.884822 85.873721 183.88379 C 74.213785 183.884423 65.235775 181.511831 58.933413 176.762165 Z M 58.933413 176.762165 " stroke="#5e17eb" stroke-width="69.631798" stroke-opacity="1" stroke-miterlimit="4"/><g fill="#ff3131" fill-opacity="1"><g transform="translate(328.480588, 455.059383)"><g><path d="M 25.515625 -120.5625 L 55.03125 -24.65625 C 52.9375 -21.3125 49.765625 -18.066406 45.515625 -14.921875 C 41.265625 -11.785156 35.734375 -9.164062 28.921875 -7.0625 C 22.109375 -4.96875 15.851562 -4.707031 10.15625 -6.28125 C 3.757812 -7.90625 -0.359375 -11.71875 -2.203125 -17.71875 L -31.71875 -113.625 C -29.625 -116.976562 -26.453125 -120.222656 -22.203125 -123.359375 C -17.960938 -126.492188 -12.46875 -129.097656 -5.71875 -131.171875 C 1.03125 -133.253906 7.335938 -133.566406 13.203125 -132.109375 C 19.578125 -130.359375 23.679688 -126.507812 25.515625 -120.5625 Z M 25.515625 -120.5625 "/></g></g></g><g fill="#ff3131" fill-opacity="1"><g transform="translate(385.077481, 436.416007)"><g><path d="M -1 -18.21875 L -22.859375 -113.046875 C -23.617188 -116.335938 -21.613281 -119.675781 -16.84375 -123.0625 C -12.082031 -126.457031 -6.132812 -128.976562 1 -130.625 C 5.039062 -131.550781 8.953125 -131.9375 12.734375 -131.78125 C 16.523438 -131.625 19.550781 -131.007812 21.8125 -129.9375 C 25.132812 -127.238281 28.257812 -124.429688 31.1875 -121.515625 C 34.125 -118.609375 40.785156 -111.773438 51.171875 -101.015625 C 51.867188 -101.171875 52.453125 -101.535156 52.921875 -102.109375 C 53.390625 -102.679688 53.515625 -103.421875 53.296875 -104.328125 C 53.085938 -105.242188 51.894531 -106.847656 49.71875 -109.140625 L 35.421875 -124.40625 L 34.21875 -129.609375 C 36.832031 -132.992188 40.273438 -135.941406 44.546875 -138.453125 C 48.816406 -140.972656 53.410156 -142.800781 58.328125 -143.9375 C 66.347656 -145.78125 73.15625 -145.816406 78.75 -144.046875 C 85.28125 -141.898438 89.398438 -137.140625 91.109375 -129.765625 L 111.765625 -40.109375 C 113.015625 -34.691406 111.332031 -30.148438 106.71875 -26.484375 C 102.8125 -23.273438 97.171875 -20.816406 89.796875 -19.109375 C 85.691406 -18.171875 81.597656 -17.691406 77.515625 -17.671875 C 73.429688 -17.660156 70.128906 -18.09375 67.609375 -18.96875 C 61.804688 -23.675781 55.875 -29.085938 49.8125 -35.203125 L 36.4375 -49.0625 C 34.664062 -48.394531 33.976562 -47.207031 34.375 -45.5 C 34.613281 -44.425781 36 -42.585938 38.53125 -39.984375 L 54.765625 -23.59375 L 55.921875 -18.5625 C 49.691406 -12.144531 41.988281 -7.878906 32.8125 -5.765625 C 23.632812 -3.648438 16.054688 -3.664062 10.078125 -5.8125 C 4.097656 -7.957031 0.40625 -12.09375 -1 -18.21875 Z M -1 -18.21875 "/></g></g></g><g fill="#ff3131" fill-opacity="1"><g transform="translate(498.728237, 410.102497)"><g><path d="M 76.21875 -86.5625 L 85.28125 -18.875 C 82.664062 -15.914062 79.003906 -13.238281 74.296875 -10.84375 C 69.597656 -8.445312 63.71875 -6.773438 56.65625 -5.828125 C 49.59375 -4.878906 43.378906 -5.644531 38.015625 -8.125 C 31.984375 -10.78125 28.550781 -15.222656 27.71875 -21.453125 L 19.40625 -83.46875 L -3.03125 -80.453125 C -8.53125 -86.441406 -11.804688 -93.351562 -12.859375 -101.1875 C -13.566406 -106.519531 -13.335938 -111.269531 -12.171875 -115.4375 C -11.003906 -119.613281 -9.316406 -122.960938 -7.109375 -125.484375 L 92.453125 -138.8125 C 94.691406 -136.164062 96.695312 -132.867188 98.46875 -128.921875 C 100.238281 -124.984375 101.394531 -121 101.9375 -116.96875 C 102.945312 -109.382812 102.023438 -103.585938 99.171875 -99.578125 C 96.316406 -95.578125 92.0625 -93.195312 86.40625 -92.4375 L 58.203125 -88.65625 C 58.066406 -88.175781 58.03125 -87.679688 58.09375 -87.171875 C 58.25 -86.015625 59.03125 -85.332031 60.4375 -85.125 C 61.90625 -84.863281 64.945312 -85.046875 69.5625 -85.671875 Z M 76.21875 -86.5625 "/></g></g></g><g fill="#ff3131" fill-opacity="1"><g transform="translate(610.822861, 395.104476)"><g><path d="M 41.140625 -127.296875 L 97.140625 -129.8125 C 99.148438 -126.78125 100.691406 -123.457031 101.765625 -119.84375 C 102.835938 -116.238281 103.4375 -112.976562 103.5625 -110.0625 C 103.851562 -103.53125 102.796875 -98.554688 100.390625 -95.140625 C 97.984375 -91.722656 94.484375 -89.910156 89.890625 -89.703125 L 50.78125 -87.9375 C 48.394531 -87.832031 47.242188 -86.847656 47.328125 -84.984375 L 47.359375 -84.203125 C 47.378906 -83.816406 47.457031 -83.554688 47.59375 -83.421875 L 93.984375 -85.515625 C 95.222656 -83.566406 96.332031 -81.085938 97.3125 -78.078125 C 98.238281 -74.816406 98.757812 -71.894531 98.875 -69.3125 C 99.21875 -61.613281 98.070312 -55.53125 95.4375 -51.0625 L 74.375 -50.109375 C 64.539062 -49.671875 57.890625 -49 54.421875 -48.09375 C 50.960938 -47.1875 48.828125 -46.460938 48.015625 -45.921875 C 47.203125 -45.296875 46.816406 -44.53125 46.859375 -43.625 C 46.898438 -42.71875 47.382812 -42.023438 48.3125 -41.546875 C 51.613281 -42.796875 55.097656 -43.734375 58.765625 -44.359375 C 63.609375 -45.035156 68.875 -45.5 74.5625 -45.75 L 101.828125 -46.984375 C 106.023438 -41.597656 108.300781 -34.992188 108.65625 -27.171875 C 108.851562 -22.765625 108.492188 -18.53125 107.578125 -14.46875 C 106.660156 -10.40625 105.148438 -7.097656 103.046875 -4.546875 L 30.375 -1.265625 C 22.351562 -0.910156 15.832031 -2.566406 10.8125 -6.234375 C 5.320312 -10.128906 2.394531 -16.085938 2.03125 -24.109375 L -2.125 -116.390625 C -2.257812 -119.492188 1.195312 -121.914062 8.25 -123.65625 C 15.300781 -125.40625 26.265625 -126.617188 41.140625 -127.296875 Z M 41.140625 -127.296875 "/></g></g></g><g fill="#ff3131" fill-opacity="1"><g transform="translate(714.51662, 389.959924)"><g><path d="M 3.90625 -17.8125 L 8.265625 -115.046875 C 8.421875 -118.410156 11.25 -121.085938 16.75 -123.078125 C 22.25 -125.078125 28.65625 -125.910156 35.96875 -125.578125 C 40.113281 -125.390625 43.988281 -124.710938 47.59375 -123.546875 C 51.195312 -122.378906 53.941406 -120.976562 55.828125 -119.34375 C 58.304688 -115.84375 60.566406 -112.296875 62.609375 -108.703125 C 64.660156 -105.117188 69.25 -96.75 76.375 -83.59375 C 77.082031 -83.5625 77.738281 -83.757812 78.34375 -84.1875 C 78.945312 -84.613281 79.269531 -85.296875 79.3125 -86.234375 C 79.351562 -87.171875 78.628906 -89.035156 77.140625 -91.828125 L 67.46875 -110.359375 L 67.703125 -115.6875 C 71.128906 -118.257812 75.234375 -120.179688 80.015625 -121.453125 C 84.804688 -122.734375 89.722656 -123.265625 94.765625 -123.046875 C 102.984375 -122.671875 109.550781 -120.878906 114.46875 -117.671875 C 120.1875 -113.847656 122.878906 -108.15625 122.546875 -100.59375 L 118.421875 -8.6875 C 118.171875 -3.132812 115.335938 0.785156 109.921875 3.078125 C 105.296875 5.140625 99.203125 6 91.640625 5.65625 C 87.429688 5.46875 83.351562 4.832031 79.40625 3.75 C 75.46875 2.664062 72.398438 1.363281 70.203125 -0.15625 C 65.878906 -6.25 61.613281 -13.054688 57.40625 -20.578125 L 48.265625 -37.5 C 46.367188 -37.332031 45.382812 -36.378906 45.3125 -34.640625 C 45.257812 -33.535156 46.101562 -31.390625 47.84375 -28.203125 L 59.09375 -8.046875 L 58.859375 -2.90625 C 51.140625 1.613281 42.570312 3.660156 33.15625 3.234375 C 23.75 2.816406 16.453125 0.773438 11.265625 -2.890625 C 6.078125 -6.554688 3.625 -11.53125 3.90625 -17.8125 Z M 3.90625 -17.8125 "/></g></g></g><g fill="#ff3131" fill-opacity="1"><g transform="translate(831.062024, 395.066424)"><g><path d="M 96.625 -62.96875 L 87.21875 4.6875 C 83.914062 6.832031 79.675781 8.425781 74.5 9.46875 C 69.320312 10.519531 63.203125 10.550781 56.140625 9.5625 C 49.085938 8.582031 43.3125 6.179688 38.8125 2.359375 C 33.695312 -1.816406 31.570312 -7.015625 32.4375 -13.234375 L 41.046875 -75.203125 L 18.625 -78.3125 C 14.9375 -85.5625 13.640625 -93.101562 14.734375 -100.9375 C 15.472656 -106.257812 16.960938 -110.773438 19.203125 -114.484375 C 21.441406 -118.191406 23.960938 -120.960938 26.765625 -122.796875 L 126.265625 -108.96875 C 127.722656 -105.8125 128.773438 -102.097656 129.421875 -97.828125 C 130.066406 -93.554688 130.109375 -89.40625 129.546875 -85.375 C 128.492188 -77.800781 126.050781 -72.460938 122.21875 -69.359375 C 118.394531 -66.265625 113.660156 -65.109375 108.015625 -65.890625 L 79.828125 -69.8125 C 79.566406 -69.394531 79.398438 -68.929688 79.328125 -68.421875 C 79.171875 -67.265625 79.742188 -66.394531 81.046875 -65.8125 C 82.390625 -65.175781 85.367188 -64.535156 89.984375 -63.890625 Z M 96.625 -62.96875 "/></g></g></g><g fill="#ff3131" fill-opacity="1"><g transform="translate(942.778692, 410.034686)"><g><path d="M 76.5625 -47.25 C 76.945312 -46.644531 77.675781 -46.210938 78.75 -45.953125 C 79.820312 -45.691406 80.785156 -45.6875 81.640625 -45.9375 C 82.296875 -55.90625 82.554688 -61.84375 82.421875 -63.75 C 82.160156 -65.75 81.335938 -66.910156 79.953125 -67.234375 C 79.316406 -67.390625 78.515625 -67.378906 77.546875 -67.203125 Z M 51.078125 -23.40625 C 50.222656 -22.675781 49.707031 -21.9375 49.53125 -21.1875 C 49.09375 -19.351562 50.441406 -17.410156 53.578125 -15.359375 C 56.710938 -13.316406 60.703125 -11.550781 65.546875 -10.0625 C 64.179688 -0.789062 63.820312 4.585938 64.46875 6.078125 C 62.71875 8.117188 58.851562 9.671875 52.875 10.734375 C 46.894531 11.796875 40.5 11.507812 33.6875 9.875 C 24.6875 7.71875 17.4375 3.929688 11.9375 -1.484375 C 6.445312 -6.898438 4.4375 -12.660156 5.90625 -18.765625 C 6.289062 -20.398438 6.796875 -21.804688 7.421875 -22.984375 L 49.09375 -108.09375 C 54.90625 -110.09375 61.523438 -111.164062 68.953125 -111.3125 C 76.378906 -111.46875 83.875 -110.640625 91.4375 -108.828125 C 102.257812 -106.222656 111.078125 -102.171875 117.890625 -96.671875 C 125.648438 -90.429688 129.523438 -83.148438 129.515625 -74.828125 L 129.703125 19.421875 C 121.109375 26.347656 109.410156 28.039062 94.609375 24.5 C 87.429688 22.769531 81.664062 20.015625 77.3125 16.234375 C 72.957031 12.460938 70.941406 8.085938 71.265625 3.109375 L 71.96875 -8.90625 C 75.757812 -8.0625 79.582031 -7.910156 83.4375 -8.453125 C 87.300781 -8.992188 89.414062 -10.019531 89.78125 -11.53125 C 90.019531 -12.53125 89.804688 -13.445312 89.140625 -14.28125 C 86.335938 -13.15625 83.097656 -12.566406 79.421875 -12.515625 C 75.742188 -12.460938 72.425781 -12.789062 69.46875 -13.5 C 60.957031 -15.539062 54.828125 -18.84375 51.078125 -23.40625 Z M 51.078125 -23.40625 "/></g></g></g><g fill="#ffbd59" fill-opacity="1"><g transform="translate(1066.639716, 441.133194)"><g/></g></g><path stroke-linecap="butt" transform="matrix(0.709111, -0.244257, 0.244257, 0.709111, 326.751026, 415.999223)" fill="none" stroke-linejoin="miter" d="M 134.219373 101.496597 C 134.026485 33.001603 75.449289 32.804251 47.591856 32.80468 L 30.48176 32.805272 C 5.592372 32.808959 4.57134 52.932941 4.570349 64.258401 L 4.569179 136.355317 C 4.568189 147.680777 5.589248 168.001373 30.478636 167.997686 L 53.376597 168.002132 C 82.838344 167.997945 134.027049 166.008351 134.22205 101.888634 Z M 59.940458 90.558316 C 59.939221 88.370953 60.331463 84.385586 65.531354 84.386405 C 71.266582 84.384329 71.706127 88.369759 71.705667 90.562047 L 71.705708 108.057559 C 71.705248 110.249847 71.268523 114.236417 66.113115 114.234395 C 60.328479 114.235977 59.940039 110.246116 59.938803 108.058753 Z M 20.513955 140.72933 C 21.0987 140.726928 21.681473 140.922159 21.925715 141.700381 C 24.114886 152.248848 34.464371 153.659903 44.187213 153.659728 C 47.784486 153.659381 51.189327 153.466051 54.154143 153.462689 C 56.343908 154.046198 55.952831 156.428946 53.765468 156.430182 C 50.75294 156.428127 47.397015 156.671358 44.190082 156.673952 C 32.864622 156.672962 21.683627 155.069136 18.910447 142.138075 C 19.106446 141.313185 19.930906 140.726807 20.513955 140.72933 Z M 17.936778 56.479081 C 20.709346 43.55229 31.840035 41.943766 43.214903 41.945249 C 46.377352 41.943859 49.779945 42.140869 52.744762 42.137507 C 54.930429 42.141195 55.371138 44.524007 53.182455 45.152775 C 50.168231 45.155645 46.815046 44.959127 43.217773 44.959474 C 33.445522 44.959156 23.093055 46.323437 20.904271 56.867756 C 20.706576 57.69757 20.128176 57.889451 19.494023 57.89136 C 18.910974 57.888837 18.131119 57.306218 17.936778 56.479081 Z M 63.540407 118.025061 C 65.72777 118.023825 66.11245 120.409372 63.929185 120.990428 C 59.747167 120.993176 54.542627 120.797953 53.574212 115.837104 C 53.375498 114.622855 53.962765 114.037405 54.738522 114.040203 C 55.372675 114.038295 56.147881 114.426509 56.342222 115.253646 C 56.925956 117.828948 59.745501 118.023436 61.931168 118.027124 Z M 75.255036 87.934095 C 75.255157 86.766302 75.057454 82.974348 72.289564 82.390013 C 70.683341 81.759619 71.072446 79.574503 72.869468 79.57102 C 76.468375 80.397534 77.876384 84.386038 78.269536 87.738518 C 78.269197 88.763012 77.634217 89.343045 76.856764 89.345171 C 76.273715 89.342648 75.449377 88.761232 75.255036 87.934095 Z M 60.13401 152.878333 C 60.524351 152.88058 60.717059 152.880856 61.107124 153.075811 C 61.348965 153.269288 61.348689 153.461996 61.546322 153.463968 C 62.708577 154.679595 61.738019 156.041947 60.520817 156.041333 C 60.328109 156.041057 59.942693 156.040506 59.745336 155.845826 C 59.552627 155.845551 59.552903 155.652843 59.355546 155.458163 C 58.143883 154.242043 58.921733 152.879415 60.13401 152.878333 Z M 58.336351 43.160142 C 58.529335 42.96771 58.531307 42.770077 58.724015 42.770353 C 58.916998 42.57792 59.358443 42.575736 59.551151 42.576012 C 60.718945 42.576133 61.736422 43.940202 60.525226 45.153561 C 60.327594 45.151589 60.330546 45.350918 60.132638 45.541655 C 59.74525 45.738736 59.552542 45.738461 59.162201 45.736213 C 57.944999 45.735599 57.168436 44.327815 58.336351 43.160142 Z M 58.336351 43.160142 " stroke="#5e17eb" stroke-width="20.908335" stroke-opacity="1" stroke-miterlimit="4"/><path stroke-linecap="butt" transform="matrix(0.729491, -0.174194, 0.174194, 0.729491, 430.168425, 381.192306)" fill="none" stroke-linejoin="miter" d="M 93.387137 32.804544 L 28.487538 32.803982 C 8.165243 32.808032 6.561792 51.520233 6.565223 57.695095 L 6.565689 143.109039 C 6.564055 149.282691 8.166856 168.000131 28.487941 168.001147 L 93.38754 168.001709 C 101.746772 167.416798 112.101235 164.015144 112.100931 146.076614 C 112.102892 127.994046 101.750125 124.392074 93.38611 123.808505 L 53.959224 123.80751 L 53.958672 118.024234 L 87.403956 118.026615 C 94.407582 118.028311 103.349645 114.621389 103.546143 100.478187 C 103.350675 86.182486 94.406077 82.782898 87.407517 82.782412 L 63.926982 82.781979 L 63.928475 77.191962 L 93.192286 77.191844 C 101.749702 77.189733 112.104275 75.82827 112.101122 54.874328 C 112.103084 36.79176 101.746086 33.386904 93.387137 32.804544 Z M 21.923137 144.521858 C 22.506772 144.521999 23.287757 144.906616 23.481711 145.686532 C 24.114365 147.095972 24.113186 148.894891 24.889799 150.060258 C 28.68038 155.265279 39.037722 156.67289 49.388991 156.670749 C 57.753147 156.670682 66.114111 155.652449 70.87922 155.65509 C 73.064658 155.652179 73.454923 158.031854 71.269343 158.6184 C 66.889544 158.616735 58.338342 159.444963 49.58381 159.442844 C 38.210517 159.441903 26.301429 158.231358 22.5069 152.056182 C 21.486056 150.254181 21.29193 148.264047 20.706674 146.319739 C 20.515662 145.101435 21.099439 144.51794 21.923137 144.521858 Z M 20.320408 54.291569 C 20.903178 52.299531 21.100638 50.306518 22.118775 48.509472 C 25.863494 42.335378 37.820706 41.16919 49.195208 41.165065 C 57.94974 41.167185 66.502784 41.945825 70.877517 41.94628 C 73.067125 42.576228 72.674219 44.961662 70.48999 44.959506 C 65.723672 44.961931 57.362598 43.939974 49.003508 43.94125 C 38.648382 43.937115 28.293054 45.346591 24.502195 50.502971 C 23.676249 51.719403 23.67507 53.518322 23.093197 54.878711 C 22.896019 55.704454 22.118148 56.091667 21.4865 56.09077 C 20.709604 56.092674 20.12611 55.508897 20.320408 54.291569 Z M 81.62319 43.162818 C 81.81645 43.160773 82.251817 43.355765 82.643261 43.93652 C 83.226755 44.520297 82.834273 45.154825 82.448822 45.737484 C 81.814988 46.126963 81.429678 46.125987 81.038093 46.128867 C 79.432434 46.125643 80.455919 43.162535 81.62319 43.162818 Z M 82.835454 154.874211 C 83.225689 155.460033 83.617133 156.040788 83.032601 156.672295 C 82.642084 157.253744 82.252543 157.449884 82.059283 157.451929 C 80.844 157.450891 79.822984 154.438672 81.429852 154.43683 C 81.815162 154.437806 82.25476 154.435682 82.835454 154.874211 Z M 82.835454 154.874211 " stroke="#5e17eb" stroke-width="20.908335" stroke-opacity="1" stroke-miterlimit="4"/><path stroke-linecap="butt" transform="matrix(0.745994, -0.0774168, 0.0774168, 0.745994, 554.989322, 353.556681)" fill="none" stroke-linejoin="miter" d="M 37.041522 170.382014 C 56.536087 170.383883 67.523299 161.43898 67.52387 150.887887 C 67.521774 149.091617 67.085395 147.29217 66.502348 145.49321 L 54.73718 122.981449 L 59.356446 120.601799 L 71.267887 144.327854 C 83.033251 166.787273 91.394246 170.383064 104.516388 170.383398 C 133.007305 170.381582 134.415689 149.090312 134.414994 136.936779 L 134.413025 63.287964 C 134.416046 50.694967 132.61686 29.987179 104.324953 29.988703 C 84.830388 29.986834 73.88985 38.784728 73.89446 49.336359 C 73.891375 51.132091 74.280592 52.93188 74.863297 54.683678 L 84.831175 75.390905 L 80.068762 77.383921 L 67.720746 51.910761 C 58.919063 33.387662 49.97223 29.987653 36.850088 29.987319 C 8.359171 29.989136 6.950298 51.133738 6.950993 63.287271 L 6.952962 136.936087 C 6.950137 149.476741 8.749616 170.383538 37.041522 170.382014 Z M 124.839652 150.693748 C 126.054433 150.694143 126.829844 152.052271 125.666473 153.272034 C 119.686288 158.421836 113.316254 160.415581 106.514191 160.416586 C 102.136511 160.417843 97.567398 159.63997 92.802161 158.229096 L 93.969252 155.459773 C 98.342187 156.866589 102.328981 157.453124 106.319003 157.453527 C 112.492953 157.450174 118.277148 155.652212 123.866692 150.886011 C 124.252983 150.695702 124.451993 150.695409 124.839652 150.693748 Z M 83.420511 44.329374 C 89.401234 39.174391 95.766087 37.180108 102.526168 37.179983 C 106.950473 37.183565 111.519586 37.961438 116.28536 39.367131 L 115.06539 42.141439 C 110.693334 40.776604 106.70566 40.148088 102.767981 40.14788 C 96.594569 40.146053 90.810374 41.944015 85.221171 46.757378 C 84.829162 46.95233 84.635333 46.953161 84.247674 46.954821 C 83.032893 46.954426 82.252497 45.543418 83.420511 44.329374 Z M 26.495217 155.652218 C 30.867614 157.064215 34.854946 157.645569 38.839787 157.645435 C 45.013199 157.647262 50.75077 155.844462 56.344957 151.083979 C 56.731786 150.888489 56.925615 150.887658 57.365617 150.886194 C 58.528055 150.886393 59.355272 152.249897 58.140095 153.464283 C 52.159372 158.619266 45.795057 160.608368 39.034975 160.608493 C 34.662476 160.610288 30.04102 159.832219 25.280964 158.421883 Z M 17.304302 46.322638 C 23.285025 41.167655 29.655059 39.17391 36.462302 39.173443 C 40.834264 39.176829 45.403377 39.954702 50.169152 41.360395 L 49.001524 44.134899 C 44.629468 42.770064 40.641794 42.141548 36.651773 42.141144 C 30.47836 42.139317 24.694165 43.937279 19.104963 48.750642 C 18.718134 48.946132 18.519124 48.946425 18.131465 48.948085 C 16.916684 48.947691 16.141469 47.53722 17.304302 46.322638 Z M 52.747469 45.932206 L 52.746639 45.738377 C 52.989197 44.763415 53.767693 44.325811 54.348643 44.328501 C 54.935312 44.326547 55.759549 44.961896 55.75935 46.124335 C 55.563466 46.952288 54.931295 47.342242 54.350345 47.339552 C 53.768856 47.342042 52.987235 46.951986 52.747469 45.932206 Z M 88.620968 152.249939 C 89.207637 152.247986 89.984419 152.684667 90.176682 153.657627 L 90.177512 153.851456 C 89.982458 154.873238 89.20362 155.26368 88.622669 155.260991 C 87.988839 155.263286 87.211568 154.679938 87.211963 153.465156 C 87.408189 152.684366 87.987675 152.247054 88.620968 152.249939 Z M 21.099575 152.495069 C 21.681063 152.492579 22.509847 152.882293 22.702109 153.855252 L 22.702939 154.049082 C 22.507885 155.070864 21.682423 155.456468 21.095754 155.458421 C 20.514803 155.455731 19.737533 154.872383 19.737928 153.657602 C 19.933616 152.881991 20.513444 152.491842 21.099575 152.495069 Z M 118.858497 43.938405 L 118.857667 43.744575 C 119.053063 42.769955 119.878721 42.332009 120.464852 42.335236 C 121.04634 42.332746 121.875758 42.968632 121.875559 44.131071 C 121.679674 44.959023 121.047504 45.348977 120.466016 45.351468 C 119.879885 45.348241 119.056282 44.959064 118.858497 43.938405 Z M 118.858497 43.938405 " stroke="#5e17eb" stroke-width="20.908335" stroke-opacity="1" stroke-miterlimit="4"/><path stroke-linecap="butt" transform="matrix(0.749979, 0.00555212, -0.00555212, 0.749979, 669.575373, 342.165238)" fill="none" stroke-linejoin="miter" d="M 69.518325 170.577012 L 73.695525 170.577339 C 133.20234 170.574321 138.789115 133.729871 138.791251 95.322553 L 138.598079 61.489724 C 138.594311 49.723805 137.187762 29.988885 106.31712 29.988248 C 76.081916 29.988116 74.477977 49.724488 74.476537 61.490446 L 74.474886 112.627275 C 74.474918 114.038772 73.065423 115.012774 72.093227 115.254353 L 71.462997 115.25381 C 70.296285 115.25203 68.689736 114.232645 68.688278 112.628446 L 68.68989 61.486409 C 68.691369 49.725659 67.08687 29.986996 36.846458 29.986902 C 5.981025 29.986227 4.569827 49.726381 4.568348 61.487131 C 4.569681 91.920246 4.373798 95.713466 4.376115 95.322814 C 4.373979 133.730131 9.964598 170.57517 69.518325 170.577012 Z M 41.029461 149.672755 C 41.222164 149.671328 41.612817 149.673645 41.999688 149.868703 C 48.807205 152.688177 58.529657 153.855819 68.498673 153.854936 C 82.837593 153.852954 97.761654 151.278862 105.930242 145.879702 C 106.31943 145.684107 106.512171 145.687889 106.949659 145.68465 C 108.116371 145.68643 108.944544 147.097004 107.729179 148.262283 C 97.565732 155.066874 83.810738 157.257302 71.07081 157.257863 C 57.362081 157.25518 45.01795 154.435026 40.010613 152.055362 C 39.231126 150.889226 39.617964 149.672787 41.029461 149.672755 Z M 122.649125 45.930282 C 118.273981 44.519923 114.290413 43.940022 110.305916 43.938269 C 104.128655 43.937123 98.344932 45.735196 92.801931 50.500319 C 92.412743 50.695914 92.173166 50.697687 91.782513 50.695371 C 90.615802 50.693591 89.788014 49.335098 91.002994 48.117738 C 96.985877 42.96914 103.35149 40.974045 110.10686 40.970911 C 114.48201 40.974981 119.055608 41.753645 123.86824 43.160764 Z M 15.313444 48.120762 C 21.29108 42.966995 27.661901 40.971862 34.469392 40.97355 C 38.844503 40.972412 43.412893 41.751114 48.173443 43.15862 L 47.006449 45.93296 C 42.631305 44.522601 38.647698 43.937492 34.663239 43.940946 C 28.485978 43.939801 22.702256 45.737874 17.112381 50.503344 C 16.723155 50.69373 16.530452 50.695157 16.139837 50.698049 C 14.926252 50.696616 14.145299 49.332568 15.313444 48.120762 Z M 64.119063 115.256093 C 64.702419 115.256983 65.528204 115.641505 65.726691 116.421307 C 66.308614 117.635782 66.3083 119.000405 66.697481 120.211099 C 67.282839 121.185959 69.51819 122.013184 72.091152 122.009762 C 75.060014 122.013825 78.269846 120.797322 78.852057 117.829389 C 79.047658 116.812288 79.820826 116.421137 80.456263 116.421641 C 81.039619 116.422531 81.814788 117.005351 81.818564 118.218897 C 80.844305 122.403308 76.276132 125.171576 71.703109 125.174179 C 69.078027 125.172779 66.503025 124.197023 64.701771 122.205094 C 63.538847 120.604284 63.537388 119.000085 62.908016 117.004689 C 62.711884 115.839442 63.343004 115.256629 64.119063 115.256093 Z M 35.243711 147.679073 C 35.438769 147.292202 35.827956 147.096607 36.458186 147.09715 C 37.041542 147.09804 37.820454 147.482909 38.015544 148.507534 L 38.016081 149.283593 C 37.818707 150.061118 37.431331 150.501497 36.849402 150.69331 L 36.021261 150.694233 C 34.031616 150.693337 33.640433 148.508673 35.243711 147.679073 Z M 80.068254 111.851472 C 80.25953 111.657342 80.456015 111.463174 80.648718 111.461748 C 81.039371 111.464064 81.427669 111.851825 81.81454 112.046883 C 82.64414 113.650161 82.059894 114.232627 81.231753 114.233549 C 80.065041 114.231769 78.075403 112.824585 80.068254 111.851472 Z M 50.754216 47.728181 L 50.75279 47.535478 C 50.995226 46.512822 51.77364 46.126841 52.356996 46.127731 C 52.987225 46.128274 53.767949 46.757928 53.76617 47.92464 C 53.574389 48.754207 52.988678 49.138762 52.358448 49.138219 C 51.775131 49.142538 50.99618 48.75246 50.754216 47.728181 Z M 126.442378 47.537662 C 126.63794 46.515353 127.416316 46.124163 128.046545 46.124706 C 128.629901 46.125596 129.410664 46.760458 129.408884 47.92717 C 129.211857 48.751568 128.631393 49.141292 128.048037 49.140403 C 127.417807 49.13986 126.638857 48.749782 126.443805 47.730365 Z M 126.442378 47.537662 " stroke="#5e17eb" stroke-width="20.908335" stroke-opacity="1" stroke-miterlimit="4"/><path stroke-linecap="butt" transform="matrix(0.745605, 0.0810782, -0.0810782, 0.745605, 785.867007, 344.016214)" fill="none" stroke-linejoin="miter" d="M 93.385476 32.804428 L 28.489528 32.804329 C 8.167763 32.808514 6.561794 51.524097 6.562298 57.695627 L 6.561328 143.107734 C 6.562396 149.284441 8.168148 168.001792 28.484735 167.99817 L 93.385861 167.997706 C 101.74725 167.418535 112.101303 164.01364 112.104768 146.074804 C 112.102823 127.989864 101.747327 124.395565 93.385209 123.811749 L 53.961059 123.808019 L 53.960797 118.024152 L 87.406686 118.023087 C 94.406444 118.026822 103.351338 114.623228 103.54723 100.477486 C 103.350049 86.185882 94.408449 82.778371 87.404076 82.780377 L 63.928109 82.781778 L 63.927968 77.191742 L 93.19298 77.189516 C 101.748565 77.191717 112.104737 75.829815 112.100298 54.879393 C 112.103531 36.79389 101.747594 33.388244 93.385476 32.804428 Z M 21.923579 144.517773 C 22.505635 144.522587 23.28638 144.9092 23.480697 145.684404 C 24.111219 147.098487 24.112763 148.895308 24.889379 150.062987 C 28.681929 155.261587 39.035637 156.671403 49.393221 156.671496 C 57.754975 156.673819 66.115669 155.654645 70.877476 155.650264 C 73.067701 155.653092 73.452657 158.036905 71.267974 158.615008 C 66.89383 158.619145 58.334005 159.445173 49.584589 159.443093 C 38.210686 159.443496 26.301272 158.229045 22.507553 152.056112 C 21.489126 150.254609 21.293629 148.264078 20.710359 146.320953 C 20.514784 145.100568 21.095913 144.518711 21.923579 144.517773 Z M 20.321904 54.292378 C 20.901731 52.301361 21.098511 50.304847 22.118463 48.506966 C 25.864009 42.33673 37.823293 41.167236 49.197196 41.166833 C 57.946612 41.168913 66.502682 41.946439 70.87739 41.947479 C 73.067868 42.578963 72.676937 44.958083 70.487275 44.960434 C 65.724905 44.959636 57.362655 43.940995 49.000901 43.938672 C 38.648495 43.938015 28.292213 45.347081 24.499007 50.500887 C 23.672522 51.717153 23.674066 53.513975 23.088808 54.876897 C 22.895914 55.704684 22.120833 56.092832 21.486998 56.093649 C 20.711674 56.094134 20.124075 55.50839 20.321904 54.292378 Z M 81.623817 43.162657 C 81.817648 43.162536 82.252595 43.356235 82.640621 43.937486 C 83.22822 44.52323 82.835633 45.152692 82.448898 45.739606 C 81.815306 46.128085 81.427644 46.128328 81.039982 46.12857 C 79.436428 46.124816 80.455089 43.158771 81.623817 43.162657 Z M 82.837565 154.87361 C 83.226155 155.460038 83.614181 156.041289 83.033504 156.675488 C 82.641028 157.257787 82.253487 157.451861 82.059656 157.451982 C 80.844328 157.453163 79.824721 154.436332 81.427711 154.434909 C 81.815373 154.434666 82.25594 154.439148 82.837565 154.87361 Z M 82.837565 154.87361 " stroke="#5e17eb" stroke-width="20.908335" stroke-opacity="1" stroke-miterlimit="4"/><path stroke-linecap="butt" transform="matrix(0.732957, 0.158979, -0.158979, 0.732957, 881.049466, 354.092112)" fill="none" stroke-linejoin="miter" d="M 16.142317 36.59966 C -8.748848 51.133247 -0.00259268 68.827199 5.979849 78.987897 L 48.369755 156.039817 C 52.987697 164.012958 60.134654 170.574184 76.080376 170.574343 C 91.392791 170.578633 99.365072 164.015632 103.935155 156.042807 L 146.373502 78.988763 C 152.307699 68.828108 161.10592 51.133959 136.21486 36.600752 C 128.826479 32.415528 122.845656 30.616371 117.692907 30.620156 C 104.954874 30.617071 97.954233 40.971732 93.775318 48.11892 L 65.920964 96.732139 L 62.127226 94.106857 L 73.259969 74.030384 L 58.532131 48.120793 C 54.349504 40.975225 47.397501 30.619788 34.659468 30.616703 C 29.458701 30.620244 23.479957 32.418009 16.142317 36.59966 Z M 114.678421 40.973584 C 111.517645 40.971662 108.312379 41.94402 105.540621 44.767594 C 105.150413 44.95882 104.958471 45.155006 104.516131 45.15502 C 103.545594 45.152353 102.771014 43.940035 103.15672 42.966359 C 106.948725 39.367229 110.886503 37.766999 114.680586 37.764791 C 123.479379 37.764262 132.229349 45.155598 140.200353 50.306985 C 141.754373 51.328924 141.173685 53.32018 139.761912 53.322617 C 139.56984 53.321642 139.180608 53.320796 138.984421 53.128854 C 132.226452 48.508444 123.232034 40.97294 114.678421 40.973584 Z M 7.975496 57.892796 C 14.72865 46.323409 25.083112 39.563476 38.451055 38.78507 C 40.641293 38.784325 41.030296 41.167481 38.843327 41.748426 C 26.493695 42.577761 16.919505 48.315741 10.546235 59.056609 C 10.162107 59.497 9.771899 59.688225 9.382667 59.687379 C 8.360126 59.690662 7.780887 59.059519 7.975496 57.892796 Z M 57.750311 151.276489 C 58.139544 151.277335 58.527801 151.470252 58.917163 151.66826 C 62.515317 155.652336 67.911338 159.251782 73.453319 159.248843 C 74.476963 159.25065 75.644533 159.056027 76.662958 158.861776 C 78.656035 158.86116 79.045999 160.609904 77.439244 161.629921 C 76.079732 162.02073 74.672074 162.214135 73.457462 162.216443 C 67.087894 162.212356 60.910268 158.228179 56.732631 153.660978 C 56.148889 152.247384 56.73286 151.278668 57.750311 151.276489 Z M 144.383711 57.3085 C 142.390504 57.111955 142.385888 54.682731 144.139722 54.291664 C 144.576972 54.292753 144.577947 54.100682 144.770019 54.101657 C 146.570179 54.489298 146.959053 56.675293 144.964886 57.11316 C 144.772814 57.112185 144.575782 57.309475 144.383711 57.3085 Z M 83.224455 158.227336 C 83.613687 158.228182 84.050938 158.229272 84.636486 158.619222 C 85.023654 159.24939 85.411066 159.83154 84.829045 160.416113 C 84.443941 161.048575 84.053733 161.2398 83.809658 161.244775 C 82.64196 161.242237 81.62061 158.228799 83.224455 158.227336 Z M 44.382527 39.1773 C 44.818673 39.1733 45.21215 39.562275 45.601512 39.760282 C 46.375245 41.361833 45.793224 41.946406 45.014759 41.944714 C 43.800147 41.947022 41.809479 40.582779 43.800377 39.564712 C 43.992319 39.368526 44.190455 39.176325 44.382527 39.1773 Z M 44.382527 39.1773 " stroke="#5e17eb" stroke-width="20.908335" stroke-opacity="1" stroke-miterlimit="4"/><path stroke-linecap="butt" transform="matrix(0.709775, 0.242322, -0.242322, 0.709775, 1004.00374, 381.672774)" fill="none" stroke-linejoin="miter" d="M 69.077504 170.380796 L 72.285981 170.380595 C 90.178028 170.381007 136.601642 164.404922 136.600645 102.468778 C 136.603934 60.663005 113.31925 30.423729 71.073864 29.987156 L 70.876227 29.988589 C 28.294692 29.985984 4.766914 60.274737 4.764808 102.470855 C 4.764123 164.40207 51.192069 170.38363 69.077504 170.380796 Z M 64.508375 110.829773 L 64.508496 91.534431 C 64.509086 89.343833 64.898549 85.358412 70.099986 85.360234 C 75.882795 85.356195 76.275706 89.34418 76.273433 91.529849 L 76.274994 110.83012 C 76.27308 113.065198 75.884942 117.006139 70.683504 117.004317 C 64.899013 117.003427 64.508143 113.069781 64.508375 110.829773 Z M 92.800635 50.940056 C 85.607469 47.925371 76.660754 46.125753 68.109223 46.128452 C 60.717188 46.12604 53.768563 47.53524 47.593819 50.501892 L 47.203474 50.503075 C 45.793566 50.500119 45.406785 48.948096 46.37771 47.923173 C 53.764974 44.7682 61.932862 42.964749 70.100659 42.966479 C 78.075748 42.967959 85.805156 44.522753 92.414768 47.923787 C 94.408662 48.508863 94.989942 50.308183 92.800635 50.940056 Z M 47.591485 147.876265 C 54.740171 150.889626 63.729683 152.685638 72.287826 152.686186 C 79.628769 152.684027 86.628486 151.279398 92.802872 148.263336 L 93.193217 148.262154 C 94.603125 148.265109 94.990264 149.866542 93.968247 150.886895 C 86.627146 154.048121 78.462505 155.84496 70.29639 155.84816 C 62.321301 155.84668 54.542126 154.242834 47.980598 150.885922 C 45.988029 150.256366 45.407107 148.506455 47.591485 147.876265 Z M 60.719111 118.413968 C 61.351574 118.412677 62.128518 118.802339 62.322267 119.62776 C 62.905663 122.400479 65.533202 123.37461 68.107533 123.370771 C 69.710149 123.373977 71.267101 122.985513 72.481685 122.400236 C 72.674643 122.207778 73.064988 122.206595 73.257696 122.206845 C 74.473213 122.204621 75.450268 123.61566 74.281097 124.785315 C 72.481635 125.801421 70.49129 126.38738 68.4934 126.38704 C 64.509161 126.387923 60.525263 124.390917 59.549548 120.211156 C 59.356299 119.000319 59.93842 118.416333 60.719111 118.413968 Z M 84.828577 86.572759 C 84.830692 87.546157 84.247247 88.174624 83.422076 88.175665 C 82.839022 88.176597 82.057041 87.5465 81.817487 86.764235 C 81.816446 85.939064 80.260992 80.399738 75.885225 80.011458 C 74.085115 79.57486 73.891814 76.993667 76.077483 76.99594 C 81.037736 77.580924 84.246846 81.75767 84.828577 86.572759 Z M 43.215376 144.714334 C 43.996066 144.711969 44.626216 145.300343 44.626898 146.076105 C 44.627939 146.901276 43.996159 147.678329 43.215468 147.680694 C 42.390297 147.681735 41.61217 146.901727 41.611129 146.076556 C 41.615376 145.299111 42.390205 144.715375 43.215376 144.714334 Z M 97.176652 51.135627 C 97.957343 51.133262 98.784879 51.912911 98.780633 52.690356 C 98.781674 53.515527 97.957435 54.099621 97.176745 54.101986 C 96.349891 54.098098 95.765905 53.515977 95.769793 52.689124 C 95.76911 51.913362 96.349798 51.131739 97.176652 51.135627 Z M 97.176652 51.135627 " stroke="#5e17eb" stroke-width="20.908335" stroke-opacity="1" stroke-miterlimit="4"/><g fill="#ffffff" fill-opacity="1"><g transform="translate(367.786267, 535.129866)"><g><path d="M 78.921875 -79.9375 C 62.0625 -128.46875 20.484375 -114.3125 0.703125 -107.5 L -11.4375 -103.3125 C -29.078125 -97.234375 -24.859375 -82.75 -22.09375 -74.6875 L -4.484375 -23.578125 C -1.71875 -15.53125 3.953125 -1.359375 21.59375 -7.4375 L 37.84375 -13.03125 C 58.734375 -20.234375 94.546875 -34.15625 79.03125 -79.65625 Z M 23.578125 -69.5625 C 23.046875 -71.125 22.359375 -74.03125 26.046875 -75.296875 C 30.125 -76.703125 31.375 -74 31.90625 -72.4375 L 36.1875 -60.015625 C 36.71875 -58.46875 37.40625 -55.53125 33.734375 -54.265625 C 29.640625 -52.859375 28.390625 -55.59375 27.859375 -57.140625 Z M 7.875 -24.34375 C 8.3125 -24.5 8.78125 -24.5 9.109375 -23.984375 C 13.25 -17.046875 20.9375 -18.578125 27.84375 -20.953125 C 30.390625 -21.828125 32.734375 -22.8125 34.859375 -23.546875 C 36.5625 -23.65625 36.875 -21.859375 35.3125 -21.328125 C 33.1875 -20.59375 30.84375 -19.625 28.578125 -18.84375 C 20.53125 -16.078125 12.234375 -14.46875 7.078125 -22.984375 C 7.046875 -23.59375 7.46875 -24.203125 7.875 -24.34375 Z M -14.53125 -83.4375 C -15.71875 -93.3125 -8.1875 -97.15625 -0.140625 -99.921875 C 2.125 -100.703125 4.5625 -101.40625 6.6875 -102.140625 C 8.234375 -102.671875 9.09375 -101.0625 7.703125 -100.09375 C 5.59375 -99.375 3.125 -98.6875 0.578125 -97.8125 C -6.34375 -95.4375 -13.328125 -91.921875 -12.3125 -83.890625 C -12.25 -83.28125 -12.640625 -83 -13.046875 -82.859375 C -13.484375 -82.71875 -14.1875 -82.921875 -14.53125 -83.4375 Z M 32.84375 -50.953125 C 34.390625 -51.484375 35.25 -49.875 33.84375 -48.9375 C 30.875 -47.921875 27.15625 -46.796875 25.25 -50.0625 C 24.8125 -50.875 25.09375 -51.4375 25.65625 -51.640625 C 26.078125 -51.78125 26.734375 -51.703125 27.078125 -51.1875 C 28.125 -49.5 30.15625 -50.03125 31.71875 -50.5625 Z M 33.828125 -75.15625 C 33.53125 -76 32.46875 -78.625 30.359375 -78.375 C 29.0625 -78.40625 28.8125 -80.0625 30.078125 -80.5 C 32.8125 -80.8125 34.78125 -78.3125 35.890625 -76.015625 C 36.125 -75.3125 35.875 -74.734375 35.296875 -74.53125 C 34.875 -74.390625 34.15625 -74.640625 33.828125 -75.15625 Z M 38.96875 -25.40625 C 39.25 -25.5 39.375 -25.546875 39.6875 -25.53125 C 39.890625 -25.421875 39.9375 -25.296875 40.078125 -25.34375 C 41.234375 -24.78125 40.84375 -23.546875 40.015625 -23.25 C 39.859375 -23.203125 39.578125 -23.109375 39.390625 -23.203125 C 39.25 -23.15625 39.203125 -23.3125 39.015625 -23.390625 C 37.875 -23.953125 38.109375 -25.109375 38.96875 -25.40625 Z M 10.859375 -102.78125 C 10.96875 -102.96875 10.921875 -103.109375 11.0625 -103.15625 C 11.15625 -103.359375 11.4375 -103.46875 11.578125 -103.515625 C 12.421875 -103.796875 13.46875 -103.046875 12.9375 -101.890625 C 12.78125 -101.84375 12.8125 -101.71875 12.75 -101.53125 C 12.5 -101.296875 12.359375 -101.25 12.078125 -101.15625 C 11.21875 -100.859375 10.3125 -101.640625 10.859375 -102.78125 Z M 10.859375 -102.78125 "/></g></g></g><g fill="#ffffff" fill-opacity="1"><g transform="translate(459.432957, 503.746738)"><g><path d="M 44.578125 -114.890625 L -2.765625 -103.578125 C -17.59375 -100.046875 -15.515625 -86.109375 -14.4375 -81.609375 L 0.4375 -19.296875 C 1.515625 -14.78125 5.953125 -1.421875 20.78125 -4.953125 L 68.125 -16.265625 C 74.109375 -18.15625 81.09375 -22.4375 77.96875 -35.5 C 74.8125 -48.71875 66.625 -49.53125 60.421875 -48.515625 L 31.65625 -41.65625 L 30.65625 -45.859375 L 55.0625 -51.6875 C 60.140625 -52.890625 66.09375 -56.9375 63.765625 -67.265625 C 61.140625 -77.703125 54 -78.609375 48.921875 -77.40625 L 31.78125 -73.3125 L 30.8125 -77.375 L 52.171875 -82.46875 C 58.40625 -83.953125 65.71875 -86.78125 62.078125 -102.03125 C 58.921875 -115.265625 50.765625 -115.90625 44.578125 -114.890625 Z M 11.875 -20.953125 C 12.3125 -21.0625 12.953125 -20.921875 13.25 -20.359375 C 13.9375 -19.46875 14.25 -18.15625 15.03125 -17.40625 C 18.6875 -14.296875 26.484375 -15.078125 34.03125 -16.875 C 40.140625 -18.34375 46.0625 -20.53125 49.5625 -21.359375 C 51.15625 -21.75 51.875 -20.0625 50.375 -19.25 C 47.171875 -18.484375 41.0625 -16.40625 34.6875 -14.890625 C 26.40625 -12.90625 17.46875 -11.6875 13.625 -15.546875 C 12.59375 -16.6875 12.109375 -18.09375 11.328125 -19.4375 C 10.96875 -20.28125 11.296875 -20.8125 11.875 -20.953125 Z M -5 -86.484375 C -4.890625 -88.03125 -5.109375 -89.515625 -4.6875 -91 C -3 -96.171875 5.5 -99.109375 13.78125 -101.078125 C 20.171875 -102.609375 26.5625 -103.515625 29.765625 -104.28125 C 31.453125 -104.25 31.59375 -102.421875 29.984375 -102.046875 C 26.5 -101.21875 20.234375 -100.484375 14.125 -99.03125 C 6.5625 -97.234375 -0.75 -94.40625 -2.59375 -89.96875 C -2.96875 -88.953125 -2.65625 -87.65625 -2.84375 -86.53125 C -2.859375 -85.921875 -3.375 -85.484375 -3.8125 -85.390625 C -4.390625 -85.25 -4.921875 -85.5625 -5 -86.484375 Z M 37.8125 -105.296875 C 37.953125 -105.328125 38.265625 -105.25 38.671875 -104.890625 C 39.21875 -104.5625 39.015625 -104.046875 38.84375 -103.546875 C 38.484375 -103.140625 38.1875 -103.078125 37.90625 -103 C 36.75 -102.734375 36.921875 -105.09375 37.8125 -105.296875 Z M 58.125 -24.015625 C 58.53125 -23.65625 58.921875 -23.265625 58.59375 -22.75 C 58.40625 -22.234375 58.140625 -22.03125 58 -22 C 57.140625 -21.78125 55.890625 -23.78125 57.046875 -24.0625 C 57.34375 -24.125 57.625 -24.203125 58.125 -24.015625 Z M 58.125 -24.015625 "/></g></g></g><g fill="#ffffff" fill-opacity="1"><g transform="translate(541.273551, 485.011815)"><g/></g></g><g fill="#ffffff" fill-opacity="1"><g transform="translate(567.995346, 478.883638)"><g><path d="M 27.8125 -1.09375 C 42.359375 -2.59375 49.84375 -10.109375 49.03125 -18 C 48.890625 -19.328125 48.453125 -20.640625 47.875 -21.921875 L 37.359375 -37.796875 L 40.59375 -39.953125 L 51.359375 -23.1875 C 61.859375 -7.3125 68.375 -5.296875 78.171875 -6.3125 C 99.421875 -8.515625 98.796875 -24.515625 97.859375 -33.578125 L 92.15625 -88.546875 C 91.1875 -97.90625 88.25 -113.21875 67.140625 -111.03125 C 52.59375 -109.515625 45.109375 -102.125 45.921875 -94.25 C 46.0625 -92.921875 46.5 -91.609375 47.09375 -90.328125 L 56.109375 -75.625 L 52.6875 -73.796875 L 41.53125 -91.828125 C 33.546875 -104.96875 26.59375 -106.828125 16.796875 -105.796875 C -4.453125 -103.59375 -3.84375 -87.75 -2.90625 -78.6875 L 2.796875 -23.71875 C 3.765625 -14.359375 6.734375 1.109375 27.8125 -1.09375 Z M 91.796875 -22.609375 C 92.6875 -22.6875 93.375 -21.703125 92.59375 -20.703125 C 88.53125 -16.40625 83.953125 -14.40625 78.90625 -13.890625 C 75.625 -13.546875 72.140625 -13.78125 68.46875 -14.453125 L 69.140625 -16.640625 C 72.53125 -15.921875 75.546875 -15.796875 78.515625 -16.109375 C 83.109375 -16.578125 87.28125 -18.375 91.0625 -22.375 C 91.34375 -22.5625 91.5 -22.578125 91.796875 -22.609375 Z M 52.671875 -98.703125 C 56.734375 -103.03125 61.3125 -105 66.375 -105.53125 C 69.65625 -105.875 73.109375 -105.625 76.796875 -104.953125 L 76.125 -102.796875 C 72.75 -103.484375 69.734375 -103.625 66.765625 -103.3125 C 62.15625 -102.828125 57.984375 -101.0625 54.1875 -97.0625 C 53.90625 -96.875 53.75 -96.859375 53.453125 -96.828125 C 52.578125 -96.734375 51.859375 -97.71875 52.671875 -98.703125 Z M 18.796875 -11.265625 C 22.171875 -10.5625 25.203125 -10.421875 28.171875 -10.71875 C 32.765625 -11.203125 36.9375 -13 40.734375 -16.984375 C 41 -17.171875 41.15625 -17.1875 41.453125 -17.21875 C 42.34375 -17.3125 43.046875 -16.328125 42.25 -15.34375 C 38.203125 -11.015625 33.578125 -9.046875 28.53125 -8.515625 C 25.265625 -8.1875 21.796875 -8.421875 18.125 -9.09375 Z M 3.515625 -92.109375 C 7.5625 -96.40625 12.15625 -98.40625 17.21875 -98.9375 C 20.484375 -99.265625 23.953125 -99.03125 27.640625 -98.359375 L 26.9375 -96.1875 C 23.578125 -96.890625 20.578125 -97.03125 17.609375 -96.734375 C 12.984375 -96.25 8.8125 -94.453125 5.03125 -90.453125 C 4.734375 -90.28125 4.59375 -90.265625 4.296875 -90.234375 C 3.40625 -90.140625 2.703125 -91.125 3.515625 -92.109375 Z M 29.90625 -95.140625 L 29.890625 -95.296875 C 29.953125 -96.03125 30.53125 -96.40625 30.96875 -96.453125 C 31.421875 -96.5 32.0625 -96.109375 32.15625 -95.21875 C 32.078125 -94.609375 31.65625 -94.265625 31.203125 -94.21875 C 30.765625 -94.171875 30.125 -94.40625 29.90625 -95.140625 Z M 64.875 -18.59375 C 65.328125 -18.640625 65.953125 -18.40625 66.1875 -17.671875 L 66.203125 -17.53125 C 66.125 -16.78125 65.5625 -16.421875 65.109375 -16.375 C 64.671875 -16.328125 64.03125 -16.703125 63.9375 -17.59375 C 64.03125 -18.203125 64.4375 -18.546875 64.875 -18.59375 Z M 14.546875 -13.234375 C 14.984375 -13.28125 15.609375 -13.015625 15.84375 -12.296875 L 15.859375 -12.140625 C 15.78125 -11.390625 15.21875 -11.046875 14.78125 -11 C 14.328125 -10.953125 13.6875 -11.34375 13.59375 -12.21875 C 13.6875 -12.828125 14.09375 -13.1875 14.546875 -13.234375 Z M 79.0625 -101.75 L 79.046875 -101.890625 C 79.125 -102.65625 79.703125 -103.015625 80.15625 -103.0625 C 80.59375 -103.109375 81.234375 -102.71875 81.3125 -101.828125 C 81.234375 -101.21875 80.8125 -100.875 80.375 -100.828125 C 79.921875 -100.78125 79.296875 -101.015625 79.0625 -101.75 Z M 79.0625 -101.75 "/></g></g></g><g fill="#ffffff" fill-opacity="1"><g transform="translate(668.642617, 468.161788)"><g><path d="M 52.109375 2.328125 L 55.234375 2.34375 C 99.890625 2.671875 104.28125 -24.921875 104.5 -53.75 L 104.53125 -79.140625 C 104.59375 -87.9375 103.65625 -102.734375 80.515625 -102.90625 C 57.8125 -103.078125 56.515625 -88.296875 56.453125 -79.5 L 56.171875 -41.109375 C 56.15625 -40.0625 55.109375 -39.3125 54.359375 -39.171875 L 53.90625 -39.1875 C 53.015625 -39.1875 51.828125 -39.953125 51.84375 -41.140625 L 52.125 -79.53125 C 52.1875 -88.328125 51.09375 -103.125 28.390625 -103.296875 C 5.25 -103.46875 4.09375 -88.671875 4.03125 -79.875 C 3.859375 -57.015625 3.6875 -54.1875 3.6875 -54.484375 C 3.46875 -25.65625 7.453125 2 52.109375 2.328125 Z M 30.875 -13.5 C 31.03125 -13.5 31.328125 -13.5 31.609375 -13.359375 C 36.671875 -11.234375 43.984375 -10.28125 51.453125 -10.234375 C 62.203125 -10.15625 73.421875 -12 79.578125 -15.984375 C 79.875 -16.125 80.03125 -16.125 80.328125 -16.125 C 81.21875 -16.125 81.796875 -15.078125 80.90625 -14.1875 C 73.25 -9.15625 62.9375 -7.59375 53.375 -7.671875 C 43.078125 -7.75 33.828125 -9.90625 30.109375 -11.734375 C 29.515625 -12.625 29.828125 -13.515625 30.875 -13.5 Z M 92.671875 -90.859375 C 89.390625 -91.9375 86.40625 -92.40625 83.421875 -92.4375 C 78.796875 -92.46875 74.453125 -91.15625 70.25 -87.59375 C 69.953125 -87.453125 69.796875 -87.453125 69.5 -87.453125 C 68.609375 -87.46875 68.015625 -88.515625 68.921875 -89.40625 C 73.421875 -93.25 78.21875 -94.703125 83.296875 -94.671875 C 86.578125 -94.640625 90.015625 -94.03125 93.578125 -92.953125 Z M 12.171875 -89.828125 C 16.671875 -93.65625 21.46875 -95.125 26.546875 -95.09375 C 29.828125 -95.0625 33.265625 -94.453125 36.828125 -93.375 L 35.921875 -91.28125 C 32.640625 -92.359375 29.65625 -92.828125 26.671875 -92.859375 C 22.046875 -92.890625 17.703125 -91.578125 13.5 -88.015625 C 13.203125 -87.875 13.046875 -87.875 12.75 -87.875 C 11.859375 -87.890625 11.265625 -88.9375 12.171875 -89.828125 Z M 48.390625 -39.21875 C 48.828125 -39.21875 49.4375 -38.921875 49.5625 -38.328125 C 50.015625 -37.40625 50 -36.359375 50.296875 -35.46875 C 50.75 -34.71875 52.375 -34.109375 54.3125 -34.09375 C 56.546875 -34.078125 58.953125 -34.953125 59.421875 -37.203125 C 59.578125 -37.9375 60.171875 -38.25 60.609375 -38.234375 C 61.0625 -38.234375 61.65625 -37.78125 61.65625 -36.875 C 60.890625 -33.75 57.4375 -31.6875 54 -31.71875 C 52.0625 -31.71875 50.125 -32.484375 48.78125 -33.984375 C 47.90625 -35.1875 47.90625 -36.375 47.46875 -37.890625 C 47.34375 -38.78125 47.78125 -39.234375 48.390625 -39.21875 Z M 26.546875 -15.03125 C 26.6875 -15.328125 26.984375 -15.484375 27.4375 -15.484375 C 27.890625 -15.484375 28.484375 -15.171875 28.640625 -14.421875 L 28.640625 -13.8125 C 28.46875 -13.234375 28.171875 -12.9375 27.71875 -12.796875 L 27.125 -12.796875 C 25.625 -12.8125 25.34375 -14.453125 26.546875 -15.03125 Z M 60.34375 -41.671875 C 60.5 -41.8125 60.640625 -41.953125 60.796875 -41.953125 C 61.09375 -41.953125 61.390625 -41.65625 61.6875 -41.515625 C 62.28125 -40.3125 61.828125 -39.875 61.234375 -39.875 C 60.328125 -39.890625 58.859375 -40.9375 60.34375 -41.671875 Z M 38.75 -89.921875 L 38.75 -90.078125 C 38.90625 -90.8125 39.5 -91.109375 39.953125 -91.09375 C 40.390625 -91.09375 41 -90.65625 41 -89.75 C 40.828125 -89.15625 40.375 -88.859375 39.9375 -88.859375 C 39.484375 -88.875 38.890625 -89.171875 38.75 -89.921875 Z M 95.5 -89.65625 C 95.65625 -90.390625 96.25 -90.6875 96.703125 -90.6875 C 97.140625 -90.671875 97.75 -90.234375 97.75 -89.328125 C 97.578125 -88.734375 97.125 -88.4375 96.6875 -88.453125 C 96.234375 -88.453125 95.640625 -88.75 95.5 -89.5 Z M 95.5 -89.65625 "/></g></g></g><g fill="#ffffff" fill-opacity="1"><g transform="translate(772.245873, 469.277811)"><g><path d="M 80.609375 -93.234375 L 32.203125 -98.5 C 17.0625 -100.15625 14.328125 -86.3125 13.828125 -81.71875 L 6.90625 -18.03125 C 6.40625 -13.421875 6.09375 0.65625 21.234375 2.3125 L 69.640625 7.578125 C 75.90625 7.796875 83.90625 6.125 85.359375 -7.234375 C 86.828125 -20.75 79.390625 -24.265625 73.21875 -25.390625 L 43.8125 -28.59375 L 44.28125 -32.890625 L 69.21875 -30.171875 C 74.40625 -29.609375 81.390625 -31.421875 82.671875 -41.9375 C 83.703125 -52.640625 77.265625 -55.890625 72.078125 -56.453125 L 54.5625 -58.359375 L 55.015625 -62.5 L 76.84375 -60.125 C 83.21875 -59.4375 91.046875 -59.640625 92.75 -75.234375 C 94.21875 -88.75 86.765625 -92.109375 80.609375 -93.234375 Z M 18.234375 -15.734375 C 18.6875 -15.6875 19.234375 -15.328125 19.328125 -14.71875 C 19.671875 -13.640625 19.515625 -12.3125 20.015625 -11.34375 C 22.40625 -7.171875 30.015625 -5.3125 37.734375 -4.46875 C 43.984375 -3.78125 50.28125 -3.859375 53.859375 -3.46875 C 55.484375 -3.296875 55.59375 -1.46875 53.921875 -1.1875 C 50.640625 -1.546875 44.1875 -1.65625 37.65625 -2.375 C 29.1875 -3.296875 20.40625 -5.140625 18.078125 -10.0625 C 17.46875 -11.46875 17.484375 -12.953125 17.203125 -14.515625 C 17.140625 -15.421875 17.640625 -15.8125 18.234375 -15.734375 Z M 24.359375 -83.140625 C 24.96875 -84.546875 25.28125 -86.046875 26.171875 -87.28125 C 29.5 -91.59375 38.484375 -91.5 46.953125 -90.578125 C 53.484375 -89.859375 59.796875 -88.578125 63.078125 -88.21875 C 64.65625 -87.625 64.1875 -85.859375 62.546875 -86.03125 C 58.96875 -86.421875 52.828125 -87.84375 46.578125 -88.53125 C 38.859375 -89.375 31.015625 -89.15625 27.796875 -85.609375 C 27.078125 -84.78125 26.9375 -83.453125 26.390625 -82.453125 C 26.1875 -81.875 25.5625 -81.640625 25.109375 -81.6875 C 24.515625 -81.765625 24.109375 -82.25 24.359375 -83.140625 Z M 71 -86.46875 C 71.140625 -86.453125 71.421875 -86.265625 71.6875 -85.796875 C 72.078125 -85.296875 71.71875 -84.875 71.375 -84.484375 C 70.890625 -84.21875 70.59375 -84.25 70.296875 -84.296875 C 69.125 -84.421875 70.09375 -86.578125 71 -86.46875 Z M 62.828125 -3.078125 C 63.078125 -2.59375 63.3125 -2.125 62.84375 -1.734375 C 62.5 -1.3125 62.171875 -1.203125 62.03125 -1.21875 C 61.140625 -1.3125 60.625 -3.625 61.8125 -3.484375 C 62.109375 -3.453125 62.40625 -3.421875 62.828125 -3.078125 Z M 62.828125 -3.078125 "/></g></g></g><g fill="#ffffff" fill-opacity="1"><g transform="translate(854.340951, 477.228853)"><g><path d="M 32.703125 -93.765625 C 12.15625 -87.0625 15.765625 -72.6875 18.515625 -64.28125 L 37.359375 -1.0625 C 39.4375 5.5 43.671875 11.453125 55.34375 13.984375 C 66.578125 16.421875 73.453125 12.875 78.078125 7.765625 L 121.40625 -41.96875 C 127.421875 -48.46875 136.640625 -60.0625 120.71875 -74.671875 C 115.984375 -78.90625 111.890625 -81.171875 108.109375 -82 C 98.75 -84.015625 92.015625 -77.53125 87.8125 -72.953125 L 59.640625 -41.765625 L 57.28125 -44.265625 L 68.640625 -57.234375 L 61.96875 -78.546875 C 60.046875 -84.46875 56.578125 -93.171875 47.234375 -95.203125 C 43.453125 -96.015625 38.78125 -95.65625 32.703125 -93.765625 Z M 104.265625 -74.875 C 101.921875 -75.390625 99.4375 -75.15625 96.953125 -73.546875 C 96.625 -73.484375 96.4375 -73.359375 96.15625 -73.421875 C 95.421875 -73.59375 95.03125 -74.609375 95.46875 -75.265625 C 98.828125 -77.28125 102 -77.828125 104.765625 -77.21875 C 111.1875 -75.828125 116.453125 -69.03125 121.453125 -63.984375 C 122.453125 -63 121.71875 -61.625 120.6875 -61.84375 C 120.546875 -61.875 120.25 -61.9375 120.125 -62.125 C 115.921875 -66.5625 110.53125 -73.515625 104.265625 -74.875 Z M 23.328125 -79.453125 C 30.140625 -86.828125 38.8125 -90.15625 48.71875 -88.609375 C 50.328125 -88.265625 50.21875 -86.453125 48.53125 -86.359375 C 39.34375 -87.75 31.421875 -85.015625 25.046875 -78.15625 C 24.6875 -77.9375 24.359375 -77.859375 24.078125 -77.921875 C 23.34375 -78.078125 23.015625 -78.59375 23.328125 -79.453125 Z M 44.984375 -3.078125 C 45.28125 -3.015625 45.53125 -2.796875 45.796875 -2.59375 C 47.796875 0.875 51.15625 4.375 55.25 5.265625 C 55.984375 5.421875 56.875 5.46875 57.640625 5.46875 C 59.09375 5.78125 59.125 7.15625 57.78125 7.640625 C 56.703125 7.71875 55.65625 7.640625 54.78125 7.453125 C 50.109375 6.4375 46.203125 2.546875 43.875 -1.484375 C 43.65625 -2.609375 44.25 -3.25 44.984375 -3.078125 Z M 123.40625 -58.1875 C 121.984375 -58.65625 122.375 -60.40625 123.75 -60.421875 C 124.03125 -60.359375 124.0625 -60.5 124.21875 -60.46875 C 125.46875 -59.890625 125.421875 -58.234375 123.875 -58.25 C 123.734375 -58.28125 123.546875 -58.15625 123.40625 -58.1875 Z M 62.546875 6.09375 C 62.84375 6.15625 63.125 6.21875 63.515625 6.59375 C 63.703125 7.09375 63.90625 7.59375 63.375 7.9375 C 63 8.3125 62.65625 8.390625 62.53125 8.359375 C 61.65625 8.171875 61.390625 5.84375 62.546875 6.09375 Z M 53.03125 -87.359375 C 53.328125 -87.296875 53.5625 -86.953125 53.8125 -86.734375 C 54.140625 -85.453125 53.59375 -85.09375 53.015625 -85.21875 C 52.140625 -85.40625 50.90625 -86.765625 52.53125 -87.171875 C 52.703125 -87.28125 52.890625 -87.390625 53.03125 -87.359375 Z M 53.03125 -87.359375 "/></g></g></g><g fill="#ffffff" fill-opacity="1"><g transform="translate(963.293563, 500.91489)"><g><path d="M 48.46875 18.453125 L 50.734375 19.21875 C 63.453125 23.5625 97.828125 30.546875 112.828125 -13.40625 C 122.96875 -43.09375 113.765625 -70.21875 83.890625 -80.734375 L 83.75 -80.78125 C 53.5 -91.109375 29.5 -75.3125 19.265625 -45.34375 C 4.265625 -1.390625 35.734375 14.109375 48.46875 18.453125 Z M 59.640625 -24.921875 L 64.328125 -38.625 C 64.859375 -40.1875 66.109375 -42.921875 69.78125 -41.671875 C 73.890625 -40.265625 73.203125 -37.34375 72.671875 -35.78125 L 67.984375 -22.078125 C 67.453125 -20.53125 66.21875 -17.796875 62.53125 -19.0625 C 58.4375 -20.453125 59.109375 -23.375 59.640625 -24.921875 Z M 94.234375 -60.625 C 89.875 -64.46875 83.953125 -67.90625 77.875 -69.984375 C 72.640625 -71.765625 67.359375 -72.484375 62.234375 -71.859375 L 61.96875 -71.953125 C 60.96875 -72.296875 61.078125 -73.515625 62.03125 -73.96875 C 68.03125 -74.453125 74.265625 -73.734375 80.046875 -71.765625 C 85.703125 -69.828125 90.828125 -66.828125 94.671875 -62.828125 C 95.9375 -61.921875 95.921875 -60.515625 94.234375 -60.625 Z M 38.640625 -2.734375 C 43.015625 1.109375 48.953125 4.546875 55.03125 6.625 C 60.25 8.40625 65.53125 9.109375 70.640625 8.5 L 70.921875 8.59375 C 71.90625 8.9375 71.796875 10.15625 70.859375 10.609375 C 64.859375 11.09375 58.625 10.390625 52.828125 8.40625 C 47.1875 6.484375 42.0625 3.453125 38.203125 -0.53125 C 36.953125 -1.4375 36.953125 -2.859375 38.640625 -2.734375 Z M 55.125 -20.46875 C 55.546875 -20.328125 56.015625 -19.859375 55.984375 -19.234375 C 55.703125 -17.125 57.3125 -15.78125 59.15625 -15.15625 C 60.28125 -14.765625 61.5 -14.65625 62.484375 -14.8125 C 62.6875 -14.890625 62.96875 -14.796875 63.09375 -14.75 C 63.953125 -14.453125 64.328125 -13.234375 63.1875 -12.671875 C 61.671875 -12.390625 60.140625 -12.46875 58.71875 -12.953125 C 55.890625 -13.90625 53.53125 -16.28125 53.84375 -19.5 C 53.984375 -20.390625 54.5625 -20.65625 55.125 -20.46875 Z M 79.953125 -37.234375 C 79.703125 -36.53125 79.125 -36.265625 78.5625 -36.453125 C 78.140625 -36.59375 77.71875 -37.21875 77.765625 -37.84375 C 77.953125 -38.40625 78.1875 -42.734375 75.1875 -44.078125 C 74 -44.796875 74.484375 -46.6875 76.03125 -46.15625 C 79.421875 -44.515625 80.671875 -40.796875 79.953125 -37.234375 Z M 36.3125 -6.0625 C 36.875 -5.875 37.15625 -5.3125 36.96875 -4.734375 C 36.765625 -4.171875 36.15625 -3.765625 35.59375 -3.953125 C 35.03125 -4.140625 34.65625 -4.890625 34.859375 -5.453125 C 35.046875 -6.03125 35.75 -6.25 36.3125 -6.0625 Z M 97.296875 -59.421875 C 97.875 -59.234375 98.234375 -58.453125 98.046875 -57.890625 C 97.859375 -57.328125 97.140625 -57.109375 96.5625 -57.296875 C 96 -57.484375 95.71875 -58.0625 95.90625 -58.625 C 96.09375 -59.1875 96.734375 -59.609375 97.296875 -59.421875 Z M 97.296875 -59.421875 "/></g></g></g></svg>